<svg width="29" height="28" viewBox="0 0 29 28" fill="none" xmlns="http://www.w3.org/2000/svg">
<g clip-path="url(#clip0_898_1781)">
<path d="M22.4951 18.7344L22.7126 20.9744C22.7444 21.3104 22.3728 21.5227 22.1145 21.3127C21.1562 20.5334 19.4683 19.1544 18.6119 18.5477C21.8222 14.525 18.6005 8.6497 13.564 9.4967C9.51537 10.178 7.76177 15.3604 10.4375 18.5477C9.29334 19.3434 8.04951 20.0247 7.04357 21C6.79662 21.2404 6.39334 21.0444 6.41826 20.6944L6.57006 18.718C6.59951 18.3354 6.47716 17.9574 6.22795 17.6704L0.634118 11.179C0.446072 10.9597 0.557087 10.6144 0.833493 10.5514L9.05771 8.73604C9.43607 8.65204 9.76006 8.40937 9.9549 8.06637L14.178 0.599704C14.3208 0.347704 14.6742 0.345371 14.8169 0.599704C15.6303 2.0207 17.803 5.8147 19.0922 8.07337C19.287 8.41404 19.611 8.65437 19.9848 8.73604L28.2113 10.5514C28.49 10.612 28.5987 10.9597 28.4107 11.179L22.8282 17.6564C22.5744 17.9504 22.4521 18.3424 22.4883 18.7344H22.4951Z" fill="currentColor"/>
<path d="M22.6696 27.7084L21.0633 26.9874C16.9081 25.1207 12.1843 25.116 8.02458 26.978L6.3888 27.7084C6.06255 27.853 5.70685 27.5777 5.74989 27.216C6.0331 24.871 7.30864 22.834 9.17325 21.4434C10.0047 20.8227 10.9563 20.3117 11.8218 19.74C13.521 20.706 15.5329 20.7224 17.2275 19.74C18.8044 20.7434 20.447 21.6394 21.6229 23.156C22.5291 24.325 23.134 25.732 23.3062 27.2184C23.3493 27.58 22.9913 27.8554 22.6673 27.7084H22.6696Z" fill="currentColor"/>
<path d="M14.0127 11.1649C19.1511 10.5699 19.6564 18.3679 14.8351 18.7483C10.0139 19.1286 9.46333 11.6923 14.0127 11.1649Z" fill="currentColor"/>
</g>
<defs>
<clipPath id="clip0_898_1781">
<rect width="29" height="28" fill="white"/>
</clipPath>
</defs>
</svg>
