<svg width="30" height="30" viewBox="0 0 30 30" fill="none" xmlns="http://www.w3.org/2000/svg">
<path d="M29.1729 12.6221C28.8574 10.7294 28.1317 8.91838 27.1104 7.30367C27.2074 6.98602 27.4435 6.75661 27.5493 6.41249C28.081 4.69632 26.6361 3.09264 24.8736 3.36837C24.642 3.40587 23.9868 3.77646 23.9008 3.75661C23.7905 3.73235 23.1221 3.17426 22.9434 3.05735C20.3207 1.35661 17.2743 0.476463 14.1243 0.668375C11.4464 0.829404 8.81698 1.77573 6.65521 3.34411C6.33095 3.23602 6.09492 3.01102 5.74418 2.9272C3.52507 2.38896 1.94124 4.89705 3.3133 6.69043C-2.23008 14.3051 1.16918 25.2044 9.92433 28.4846C20.3207 32.3801 30.9927 23.5323 29.1685 12.6198L29.1729 12.6221ZM24.9993 4.29264C27.1633 3.92426 27.3199 7.21102 25.253 7.1294C23.5015 7.05882 23.4618 4.55514 24.9993 4.29264ZM4.90815 3.80293C6.69713 3.54926 7.23316 6.01543 5.64271 6.5647C3.61551 7.26396 2.99565 4.07426 4.90815 3.80293ZM10.3324 27.6551C2.12212 24.6265 -1.10949 14.4948 4.00154 7.3147C4.07213 7.27058 4.5111 7.48235 4.6633 7.51764C6.28904 7.88382 7.6986 6.50073 7.49566 4.86837C7.47139 4.66543 7.23095 4.17793 7.26183 4.07205C7.29051 3.97499 8.27654 3.3772 8.44418 3.28455C10.2067 2.29852 12.2273 1.70514 14.2479 1.59264C17.4398 1.41396 20.828 2.44852 23.2765 4.49338C22.1317 6.53382 24.1765 8.76396 26.3251 7.84852C27.2736 9.26029 27.9618 11.0029 28.253 12.6838C30.0089 22.8882 20.089 31.2551 10.3324 27.6551Z" fill="currentColor"/>
<path d="M9.11256 6.2295C3.5008 9.98833 2.78609 18.0464 7.71183 22.7119C7.86624 22.8574 8.72874 23.5082 8.76183 23.5722C8.79712 23.6383 8.65154 24.3332 8.67359 24.578C8.87653 26.8788 12.1148 27.5207 13.0942 25.4163C20.9096 26.8722 27.4523 19.4847 25.0876 11.8501C23.0184 5.16406 14.9626 2.31186 9.11256 6.2295ZM11.153 25.7824C9.25374 25.9104 9.07065 23.131 10.864 22.9104C12.7523 22.6788 13.0854 25.6523 11.153 25.7824ZM13.3986 24.5538C13.5111 22.7251 11.6802 21.4258 9.99492 22.2266C9.69492 22.3699 9.52948 22.5972 9.26036 22.7626C4.08315 19.0479 4.05006 11.142 9.1633 7.32362C14.6515 3.22509 22.5376 5.91406 24.3177 12.4964C26.1596 19.3082 20.3096 25.703 13.3986 24.5516V24.5538Z" fill="currentColor"/>
<path d="M15.0001 18.7213C17.0553 18.7213 18.7214 17.0553 18.7214 15C18.7214 12.9448 17.0553 11.2787 15.0001 11.2787C12.9448 11.2787 11.2788 12.9448 11.2788 15C11.2788 17.0553 12.9448 18.7213 15.0001 18.7213Z" fill="currentColor"/>
</svg>
