<svg width="26" height="28" viewBox="0 0 26 28" fill="none" xmlns="http://www.w3.org/2000/svg">
<path d="M21.647 27.7122H4.46024C3.28642 27.5003 2.20244 26.9403 1.46642 25.9739C0.156857 24.2569 0.579357 22.5342 0.516269 20.4808C0.449357 18.2583 0.422592 16.0339 0.413033 13.8094C0.397739 10.5194 0.206562 7.85361 3.07803 5.75167C5.63406 4.28361 8.1098 2.38778 10.6811 0.974166C12.0901 0.200277 13.5469 0.10111 15.0094 0.812777C17.4985 2.52583 20.3833 3.9375 22.8208 5.69722C24.3904 6.83083 25.4189 8.59833 25.5394 10.5758C25.7649 14.2858 25.4074 18.1903 25.6445 21.9081C26.0001 24.5856 24.4477 27.4342 21.647 27.7103V27.7122ZM12.7535 2.17583C12.5413 2.19528 12.3099 2.26139 12.1054 2.31778C9.56656 3.96278 6.63392 5.43861 4.19068 7.20417C3.11627 7.98 2.33818 9.21083 2.25024 10.5758C1.9845 14.7272 2.49303 19.1275 2.30377 23.3042C2.41274 24.5544 3.27303 25.5967 4.50039 25.8281C10.2204 25.9331 15.9844 25.9525 21.7024 25.8183C22.8189 25.5753 23.6314 24.6575 23.8016 23.5161L23.7519 10.7372C23.6295 9.18361 22.9164 7.99944 21.6757 7.13028C19.3108 5.47361 16.6095 4.1125 14.2198 2.47139C13.7533 2.26139 13.2658 2.13111 12.7535 2.17583Z" fill="currentColor"/>
<path d="M9.4404 20.4031L16.7261 20.3953C17.9 20.5392 17.8904 22.1064 16.7319 22.26L9.43084 22.2561C8.35834 22.0714 8.33731 20.5645 9.4404 20.4031Z" fill="currentColor"/>
</svg>
