<svg width="30" height="28" viewBox="0 0 30 28" fill="none" xmlns="http://www.w3.org/2000/svg">
<path d="M0.705555 9.81398C1.26806 5.22664 6.02587 2.30298 10.261 4.60831C10.3149 4.63864 10.5165 4.77864 10.7321 4.92564C11.0274 5.12631 11.4399 5.00264 11.5618 4.66664C12.7571 1.33231 16.5352 -0.387356 19.929 1.01731C24.9118 3.07764 25.5001 9.22364 23.154 13.524C23.1212 13.587 23.0931 13.6406 23.0649 13.6896C22.9384 13.916 22.6056 13.8996 22.4977 13.6616C21.4173 11.2443 18.8274 9.86298 16.1556 10.458C14.4095 10.8476 12.6845 12.1403 11.9462 13.776C11.0227 15.8246 11.0485 18.0016 11.6298 20.104C11.7235 20.4446 11.4141 20.7573 11.0743 20.6593C7.77899 19.712 4.41805 18.221 2.39071 15.3813C1.59383 14.266 0.721961 12.4996 0.651648 11.1183C0.632898 10.7683 0.661024 10.1663 0.705555 9.81631V9.81398Z" fill="currentColor"/>
<path d="M17.2928 25.1786C16.9608 25.2603 16.6155 25.1026 16.4706 24.7931C16.0318 23.8549 15.3832 23.0135 14.8586 22.1228C13.5137 19.8457 12.5293 17.4337 13.5423 14.7863C14.7384 11.6583 19.3397 11.0658 20.862 14.2564C20.9841 14.5128 21.0547 14.7673 21.1291 15.0256C21.1844 15.2212 21.4057 15.3123 21.5869 15.2193C23.5709 14.2203 26.0279 15.0275 26.894 17.1451C28.1092 20.1173 25.9478 22.6907 23.3076 23.7998C21.3885 24.605 19.292 24.6829 17.2928 25.1748V25.1786Z" fill="currentColor"/>
</svg>
