<svg width="51" height="38" viewBox="0 0 51 38" fill="none" xmlns="http://www.w3.org/2000/svg">
<path d="M32.1394 36.1087C32.4203 36.814 32.0751 37.6194 31.363 37.8968L31.3623 37.897C31.2112 37.9557 31.0608 37.9829 30.9216 37.9888L30.8625 37.9901C30.3224 37.9901 29.7978 37.6675 29.5823 37.1194C25.1993 26.0176 20.8166 14.9146 16.4307 3.81427C11.9174 14.9172 7.41154 26.023 2.89891 37.1265L2.89867 37.1273C2.68063 37.6627 2.16661 37.9849 1.62499 37.9849C1.48539 37.9849 1.30323 37.963 1.11205 37.8843L1.11156 37.8851C1.10221 37.8813 1.09319 37.8768 1.08397 37.8729C1.0824 37.8722 1.08066 37.8718 1.07909 37.8712L1.07933 37.8709C0.396373 37.5758 0.07078 36.7903 0.34984 36.0967L0.351061 36.0936C5.19624 24.1721 10.0337 12.2497 14.8769 0.327454H18C22.8939 12.182 27.433 24.1794 32.1394 36.1087Z" fill="black"/>
<path fill-rule="evenodd" clip-rule="evenodd" d="M42.3125 16.8226C46.5577 16.8226 49.8197 19.6226 50.3176 23.7828C50.4074 24.5284 49.8868 25.1945 49.1616 25.306L49.1619 25.3062H49.1604C49.1465 25.3083 49.1326 25.3109 49.1186 25.3126L49.1184 25.3118C49.0825 25.3164 49.0498 25.3198 49.0229 25.3211L48.9526 25.3226C48.2682 25.3226 47.6702 24.8131 47.5869 24.1102C47.4174 22.6901 46.8119 21.5707 45.9255 20.8043C45.0371 20.036 43.8088 19.5726 42.3125 19.5726C41.3448 19.5726 40.4746 19.7258 39.72 20.0123C39.0436 20.269 38.6778 20.4815 38.156 20.9058L38.1538 20.9075C37.646 21.318 37.1956 21.8302 36.8152 22.438L36.8147 22.4378C36.5244 22.9053 36.4474 23.0596 36.2361 23.5684C35.9484 24.2646 35.7361 25.0435 35.6094 25.8897L35.6096 25.89C35.5464 26.3206 35.5203 26.5751 35.4958 27.0096L35.4961 27.0098C35.4821 27.2635 35.4751 27.5228 35.4751 27.7825L35.4766 27.9642C35.5087 29.8383 36.0392 31.6485 37.0583 32.98C38.0854 34.3218 39.6492 35.2374 41.9026 35.2374L42.0757 35.2357C43.8515 35.1988 45.2664 34.5925 46.2505 33.5506C46.2505 33.5506 45.7295 34.1702 46.3022 33.4988C46.6159 33.1312 47 32.7025 47.2185 32.0723L47.2192 32.0706C47.4775 31.4821 47.6489 30.8115 47.7197 30.0787V30.0775C47.7916 29.3426 48.4459 28.7642 49.2219 28.8423L49.2222 28.8421C49.2248 28.8424 49.2275 28.8428 49.2302 28.8431C49.231 28.8432 49.2318 28.8432 49.2327 28.8433C49.98 28.9219 50.5313 29.5912 50.458 30.3443C50.3611 31.3478 50.1217 32.3016 49.7383 33.1763C49.4912 33.7396 48.67 34.9965 48.2475 35.4412L48.2473 35.441C46.7197 37.0596 44.537 37.9317 42.1357 37.9847L41.9026 37.9874C39.2171 37.9874 36.8981 36.9246 35.2607 35.0816C33.6311 33.2472 32.7251 30.6976 32.7251 27.7825C32.7251 27.5526 32.7295 27.3189 32.7397 27.0853L32.7519 26.8516C32.7778 26.4005 32.8225 25.9347 32.8879 25.4876L32.8882 25.4857L32.8887 25.4835C33.0471 24.4308 33.3173 23.4319 33.6958 22.5157L33.6973 22.5125L33.6985 22.5096C33.9041 22.0212 34.2034 21.4294 34.4841 20.9805C35.0168 20.1271 35.667 19.3813 36.4238 18.7696L36.4277 18.7667C36.9724 18.331 38.0401 17.7457 38.6828 17.4656L38.7475 17.4393C39.8396 17.0273 41.0405 16.8226 42.3125 16.8226Z" fill="black"/>
</svg>
