<svg width="34" height="36" viewBox="0 0 34 36" xmlns="http://www.w3.org/2000/svg">
<path fill-rule="evenodd" clip-rule="evenodd" d="M23.8609 0.00170898C24.5876 0.0385416 25.1651 0.638904 25.1651 1.375C25.1651 8.18828 25.1675 15.0016 25.1675 21.8149H32.0179C32.7773 21.8151 33.3924 22.4301 33.3926 23.1897C33.3926 23.9496 32.7772 24.5648 32.0179 24.5649H25.1675C25.1675 27.6682 25.1651 30.7714 25.1651 33.875C25.1651 34.6111 24.5876 35.2115 23.8609 35.2483L23.7901 35.25C23.0303 35.25 22.4151 34.6348 22.4151 33.875C22.4151 30.7718 22.4175 27.6678 22.4175 24.5649H12.0301C10.6575 24.5649 9.4075 23.2499 10.2481 21.5532L10.2488 21.5515L10.2498 21.5498C10.6245 20.8366 10.9676 20.1113 11.2718 19.3943L11.2732 19.3909C11.4938 18.8764 11.6049 18.5987 11.794 18.072L11.7947 18.0703L11.7952 18.0684C12.0956 17.2416 12.3506 16.4023 12.5574 15.5752L12.5764 15.5071C12.7026 15.0927 12.7299 14.8469 12.814 14.4211C13.0605 13.1643 13.1964 11.905 13.2202 10.678V10.6697L13.2207 10.6611C13.225 10.5444 13.2251 10.4266 13.2251 10.2949C13.2251 8.4829 12.9558 7.36996 12.4085 6.43115L12.3575 6.34351C11.439 4.82217 9.67909 3.25079 7.64871 3.20117L7.55008 3.19995C7.32921 3.19995 7.10301 3.21813 6.88138 3.25439L6.87894 3.25488C6.27449 3.35226 5.68926 3.57597 5.13553 3.927L5.13382 3.92822L5.13235 3.9292C4.04604 4.61203 3.25405 5.70885 2.82742 6.90967C2.62735 7.47312 2.10044 7.82494 1.5325 7.82495C1.36996 7.82491 1.21491 7.79483 1.07474 7.74536L1.07205 7.74463L1.06961 7.74365C0.359742 7.48872 -0.0193996 6.70411 0.238798 5.98462C0.839278 4.29166 2.13444 2.56557 3.66531 1.60327C4.52253 1.05931 5.45621 0.700136 6.43997 0.540527C6.81026 0.479068 7.18386 0.449951 7.55008 0.449951C10.9904 0.449992 13.591 2.99948 14.7835 5.04346L14.8626 5.18164C15.6625 6.61493 15.9751 8.19382 15.9751 10.2949C15.9751 10.4406 15.9722 10.5905 15.9698 10.73V10.7312C15.9436 12.1254 15.787 13.5435 15.5115 14.9519L15.5113 14.9534C15.4239 15.3962 15.3348 15.8045 15.2254 16.2424C14.9966 17.1623 14.7113 18.0927 14.3802 19.0059C14.1933 19.5219 14.0196 19.9589 13.8067 20.4651L13.8059 20.467C13.6159 20.9164 13.4117 21.3667 13.1956 21.8149H22.4175C22.4175 15.0016 22.4151 8.18835 22.4151 1.375C22.4151 0.615215 23.0303 0 23.7901 0L23.8609 0.00170898Z"/>
</svg>
