<svg width="35" height="35" viewBox="0 0 35 35" fill="none" xmlns="http://www.w3.org/2000/svg">
<path fill-rule="evenodd" clip-rule="evenodd" d="M34.4025 18.1428C34.4023 19.0402 33.6755 19.7676 32.7775 19.7676C31.8794 19.7676 31.1526 19.0402 31.1525 18.1428V17.689C31.1512 17.6643 31.15 17.638 31.15 17.6104V6.3335C28.9453 8.54211 26.7322 10.744 24.5267 12.9507C26.3647 15.2985 27.3676 18.1913 27.3676 21.1951C27.3553 22.9881 27.0025 24.8086 26.2938 26.459L26.2941 26.4592C24.2153 31.3168 19.5008 34.4823 14.2362 34.5801L13.985 34.5825C11.1351 34.5825 8.22894 33.5955 5.99329 31.9395L5.99182 31.9382L5.99011 31.937C3.98965 30.4449 2.32051 28.2415 1.44104 25.8816L1.4408 25.8806C0.886419 24.3894 0.599976 22.7906 0.599976 21.2C0.600006 13.965 6.26702 8.0878 13.4967 7.82568C14.9171 7.81326 16.3725 7.94571 17.7997 8.37036C19.2457 8.8121 20.764 9.55339 22.0167 10.4963L22.0184 10.4978L22.0201 10.499C22.0894 10.5515 22.1532 10.609 22.2118 10.6702C24.4357 8.44695 26.6628 6.22564 28.8856 4H17.0096C16.1124 3.99979 15.3849 3.27312 15.3849 2.375C15.3849 1.47688 16.1124 0.750213 17.0096 0.75H34.4C34.4 4.98749 34.4025 12.4374 34.4025 18.1428ZM13.6122 11.0742H13.6127C15.1651 11.018 16.8277 11.3439 18.2108 11.99L18.2152 11.9919C19.4655 12.57 20.5721 13.3813 21.4965 14.3975C23.1873 16.2618 24.1176 18.6771 24.1176 21.1975C24.1176 22.7509 23.8869 23.9785 23.3353 25.1138L23.3031 25.1836C21.7298 28.8626 18.1609 31.2592 14.1727 31.3333L13.9825 31.335C11.806 31.335 9.6659 30.6208 7.93347 29.332C6.32122 28.1327 5.26905 26.7476 4.54138 24.8943C4.12966 23.7859 3.84998 22.3961 3.84998 21.2C3.85 15.7145 8.13564 11.2701 13.6122 11.0742Z" fill="black"/>
</svg>
