<svg width="29" height="35" viewBox="0 0 29 35" xmlns="http://www.w3.org/2000/svg">
<path fill-rule="evenodd" clip-rule="evenodd" d="M26.5349 0.648853C27.0738 0.11198 27.9365 0.121899 28.4682 0.647144L28.4685 0.6469C28.4697 0.648128 28.4709 0.649577 28.4721 0.650807C28.4729 0.65157 28.4738 0.652236 28.4746 0.653004L28.4743 0.653248C29.0176 1.19387 29.0072 2.06442 28.4746 2.5971L28.4724 2.59929L28.4702 2.60173C27.205 3.85093 25.9607 5.11354 24.7043 6.36956C26.215 8.75001 26.685 10.375 26.685 13.0024C26.685 14.7837 26.2906 16.5738 25.5229 18.1843L25.5232 18.1845C23.7273 21.9607 20.0771 24.53 15.9802 25.0041V28.195H20.4626C21.2222 28.1951 21.8376 28.8102 21.8376 29.57C21.8376 30.3059 21.2602 30.9064 20.5334 30.9433L20.4626 30.945H15.9802V31.1828C15.9802 31.2114 15.979 31.2381 15.9775 31.2624V33.4328C15.9773 34.1921 15.3625 34.8075 14.6025 34.8075C13.8429 34.8074 13.2277 34.1922 13.2275 33.4328V30.945H8.74021C7.98035 30.945 7.36528 30.3296 7.36521 29.57C7.36524 28.8102 7.98045 28.195 8.74021 28.195H13.2302V25.0053C10.7153 24.7201 8.34938 23.6553 6.46067 21.9311L6.45872 21.9291C4.95977 20.5529 3.72796 18.606 3.12132 16.7861L3.12058 16.7836C2.82556 15.8903 2.63753 14.9605 2.55857 14.0239C2.4947 13.2637 2.51749 12.2536 2.60984 11.4963L2.61009 11.4936C2.84164 9.63673 3.491 7.92387 4.45481 6.43914C3.16862 5.16419 1.89746 3.87641 0.618142 2.5971L0.618386 2.59685C0.0803703 2.06144 0.0803704 1.18866 0.618386 0.653248L0.618142 0.653004C0.618899 0.65226 0.619831 0.651555 0.620583 0.650807C0.621804 0.649587 0.623016 0.648109 0.624245 0.6469L0.624489 0.647144C1.16296 0.115282 2.02627 0.117039 2.56223 0.653004C3.78056 1.87133 4.9878 3.09602 6.21189 4.30925C8.397 2.20321 11.3679 0.917432 14.6025 0.917408C17.6747 0.917428 20.715 2.13469 22.9363 4.24895C24.1337 3.05153 25.3274 1.84121 26.5349 0.648853ZM9.98045 23.0781C10.023 23.0976 10.066 23.1162 10.1089 23.1352C9.99201 23.0834 9.87577 23.0301 9.76072 22.9743L9.98045 23.0781ZM14.3828 3.66765C9.77763 3.7752 5.91106 7.25293 5.34007 11.8337L5.33933 11.8378L5.33884 11.842C5.16153 13.1718 5.28745 14.4991 5.69138 15.7939C6.17282 17.2976 7.00535 18.6972 8.31638 19.9006C10.0363 21.4707 12.2695 22.3349 14.6025 22.3349C18.184 22.3349 21.4978 20.242 23.0371 17.0055L23.0378 17.0038L23.0386 17.0024C23.6384 15.7529 23.935 14.3928 23.935 12.9999C23.935 12.1248 24.2719 10.373 22.115 7.45989C20.3767 5.14163 17.6041 3.66499 14.6025 3.66497L14.3828 3.66765ZM21.0029 21.1054C21.1447 20.9938 21.2835 20.8784 21.4194 20.7594C21.3288 20.8388 21.2368 20.9165 21.1435 20.9926C21.0969 21.0306 21.0502 21.0682 21.0029 21.1054Z"/>
</svg>
