<svg width="51" height="39" viewBox="0 0 51 39" xmlns="http://www.w3.org/2000/svg">
<path d="M42.1824 16.875C46.4277 16.875 49.6902 19.6753 50.188 23.8357L50.1946 23.9067C50.2451 24.6382 49.7121 25.277 48.9885 25.3652L48.9883 25.3645C48.9462 25.3699 48.9106 25.373 48.8848 25.374L48.8225 25.375C48.1382 25.375 47.5401 24.8657 47.4568 24.1626C47.2873 22.7426 46.6817 21.6232 45.7954 20.8567C44.907 20.0884 43.6787 19.625 42.1824 19.625C41.2147 19.625 40.3445 19.7783 39.5898 20.0647C38.9153 20.3207 38.5467 20.5323 38.0259 20.9558L38.0237 20.9575C37.5159 21.368 37.0655 21.8802 36.6851 22.488L36.6848 22.4878C36.394 22.9561 36.3173 23.1094 36.1062 23.6194L36.1064 23.6196C35.8181 24.317 35.6057 25.0975 35.479 25.9453L35.4788 25.9451C35.4151 26.3741 35.3901 26.6267 35.3657 27.0596L35.366 27.0598C35.352 27.3134 35.345 27.5728 35.345 27.8325L35.3464 28.0142C35.3786 29.8883 35.909 31.6984 36.9282 33.03C37.9553 34.3719 39.5191 35.2876 41.7725 35.2876C43.6296 35.2876 45.1045 34.6763 46.1204 33.6008L46.1719 33.5493C46.9907 32.77 46.6352 33.1688 47.0876 32.1267L47.0884 32.1248L47.0891 32.123C47.3474 31.5345 47.5188 30.8641 47.5896 30.1313V30.1304C47.661 29.3986 48.3101 28.8164 49.0918 28.8948L49.092 28.8945C49.0938 28.8947 49.0956 28.8948 49.0974 28.895C49.0986 28.8951 49.0998 28.8954 49.1011 28.8955C49.8497 28.9734 50.4014 29.644 50.3279 30.3972L50.3276 30.397C50.2308 31.4004 49.9915 32.3541 49.6082 33.2288C49.3613 33.7916 48.5398 35.0467 48.1177 35.4912L48.1174 35.491C46.5406 37.1618 44.2654 38.0376 41.7725 38.0376C39.087 38.0376 36.768 36.9747 35.1306 35.1316C33.501 33.2971 32.595 30.7476 32.595 27.8325C32.595 27.6026 32.5994 27.3689 32.6096 27.1353L32.6218 26.9016C32.6476 26.4513 32.6928 25.9866 32.7581 25.5403L32.7583 25.5383L32.7588 25.5361C32.9172 24.4837 33.187 23.4845 33.5657 22.5681L33.5671 22.5649L33.5684 22.5618C33.7743 22.0727 34.073 21.4799 34.354 21.0305C34.8867 20.1771 35.5368 19.4313 36.2937 18.8196C36.8292 18.3862 37.9162 17.7954 38.5527 17.5181L38.6174 17.4917C39.7117 17.0764 40.9156 16.875 42.1824 16.875Z"/>
<path d="M24.4753 0.30249H28.3999V37.8H26.0525C25.2926 37.8 24.6776 37.1848 24.6775 36.4253C24.6775 35.8056 25.0867 35.2819 25.6499 35.1099V5.49463C22.219 15.8434 19.0564 25.3867 15.4597 36.2424H13.3787C9.90947 25.8132 6.74216 16.2915 3.09497 5.33179V35.1099C3.65812 35.2819 4.06738 35.8054 4.06738 36.425C4.06722 37.1845 3.45226 37.8 2.69238 37.8H0.344971V0.30249H4.3186C7.73867 10.581 11.365 21.4722 14.4177 30.6489C17.9635 19.9461 20.9493 10.9449 24.4753 0.30249Z"/>
</svg>
