<svg width="35" height="34" viewBox="0 0 35 34" xmlns="http://www.w3.org/2000/svg">
<path fill-rule="evenodd" clip-rule="evenodd" d="M10.5522 6.17798C11.0955 6.7186 11.0848 7.58937 10.5522 8.12207C10.2858 8.38844 9.93109 8.52489 9.57999 8.5249C9.22893 8.52488 8.87442 8.38839 8.60807 8.12207L7.11759 6.63159V15.6475H16.175V6.84155L14.652 8.3645C14.3857 8.63083 14.0312 8.76731 13.6801 8.76733C13.3317 8.76733 12.9799 8.63271 12.7143 8.37036L12.714 8.37061C12.7128 8.3694 12.7116 8.3679 12.7104 8.3667C12.7096 8.36596 12.7087 8.36525 12.7079 8.3645L12.7082 8.36426C12.1649 7.82362 12.1753 6.95283 12.7079 6.42017L14.4753 4.65283C15.1739 3.95042 15.3639 3.76425 16.0653 3.06274L17.55 1.57812L22.392 6.42041C22.9354 6.96104 22.9247 7.8318 22.392 8.3645C22.1256 8.63086 21.7709 8.76733 21.4198 8.76733C21.0688 8.76729 20.7142 8.63081 20.4479 8.3645L18.925 6.84155V15.6475H27.9826V6.86206L26.7226 8.12207C26.4562 8.38838 26.1017 8.52487 25.7506 8.5249C25.4023 8.52488 25.0505 8.39028 24.7848 8.12793L24.7846 8.12817C24.7833 8.12695 24.7821 8.12548 24.7809 8.12427C24.7802 8.12352 24.7792 8.12283 24.7785 8.12207L24.7787 8.12183C24.2354 7.58121 24.2459 6.71064 24.7785 6.17798L26.5458 4.4104C27.0769 3.87643 27.3399 3.59582 27.873 3.06274L29.3576 1.57812L34.1996 6.42041C34.743 6.96103 34.7323 7.83179 34.1996 8.3645C33.9332 8.63087 33.5786 8.76733 33.2275 8.76733C32.8764 8.76731 32.5219 8.63084 32.2555 8.3645L30.7326 6.84155V18.3975H18.925V24.8398H25.0026C25.7611 24.8413 26.3748 25.456 26.3749 26.2148C26.3749 26.9746 25.7597 27.5898 24.9999 27.5898H20.7558C20.7495 27.5899 20.7432 27.5901 20.737 27.5901H18.9174C18.9224 27.6479 18.925 27.7054 18.925 27.7625V32.2715C18.9249 32.5938 18.8477 32.9342 18.6691 33.2271C18.5006 33.5034 18.1337 33.8862 17.55 33.8862C16.9663 33.8862 16.5993 33.5034 16.4308 33.2271C16.2746 32.9708 16.1959 32.6781 16.1786 32.3931L16.175 32.2715V27.7625C16.175 27.7054 16.1776 27.6479 16.1825 27.5901H11.2441C10.7901 27.5901 10.3443 27.5429 9.98185 27.4475C9.80804 27.4017 9.59523 27.3301 9.40226 27.2097C9.26123 27.1217 8.82003 26.8117 8.81998 26.2151C8.81998 25.6185 9.26116 25.3085 9.40226 25.2205C9.59522 25.1001 9.80804 25.0284 9.98185 24.9827C10.3443 24.8872 10.7901 24.8401 11.2441 24.8401H14.935C14.9383 24.8401 14.9416 24.8398 14.945 24.8398H16.175V18.3975H4.36759V6.56641L2.81193 8.12207C2.54558 8.38837 2.19105 8.52487 1.84 8.5249C1.49161 8.52487 1.13983 8.39027 0.874182 8.12793L0.873938 8.12817C0.872709 8.12696 0.871501 8.12548 0.870275 8.12427C0.869515 8.12352 0.868588 8.12282 0.867834 8.12207L0.868078 8.12183C0.32482 7.58121 0.335255 6.71064 0.867834 6.17798L2.63517 4.4104C3.33434 3.70739 3.52312 3.52269 4.2255 2.82031L5.71012 1.33569L10.5522 6.17798ZM25.1567 25.8743C25.1973 25.8929 25.2341 25.9185 25.2653 25.9497L25.2387 25.9253C25.2139 25.9048 25.1862 25.8878 25.1567 25.8743ZM25.7148 7.52319C25.7267 7.52437 25.7387 7.5249 25.7506 7.5249L25.7148 7.52319ZM1.57487 6.88501L1.54899 6.91357C1.55705 6.9037 1.56565 6.89423 1.57487 6.88501ZM25.4855 6.88501L25.4596 6.91357C25.4677 6.9037 25.4763 6.89422 25.4855 6.88501ZM15.6213 5.29272C15.654 5.31005 15.6849 5.33245 15.7126 5.36011C15.7217 5.36914 15.7304 5.3785 15.7384 5.38818L15.7126 5.36011C15.7034 5.35092 15.6938 5.34203 15.684 5.33398C15.6741 5.32592 15.6639 5.31844 15.6535 5.31152C15.643 5.3046 15.6322 5.29846 15.6213 5.29272ZM27.8781 5.2749C27.8816 5.28651 27.8846 5.29822 27.8869 5.31006L27.8781 5.2749C27.8746 5.26334 27.8707 5.25196 27.8661 5.24072L27.8781 5.2749ZM28.6012 4.31982C28.6084 4.32599 28.6157 4.33189 28.6232 4.3374L28.6234 4.33716C28.6084 4.32605 28.5937 4.31379 28.58 4.30005C28.5869 4.30695 28.594 4.31359 28.6012 4.31982ZM5.08414 4.14819C5.11189 4.15643 5.14051 4.16111 5.16935 4.1626C5.13689 4.16087 5.10488 4.15452 5.07389 4.14429C5.07736 4.14543 5.08064 4.14715 5.08414 4.14819ZM5.00406 4.11328C5.00579 4.1143 5.0077 4.11498 5.00944 4.11597C5.00694 4.11455 5.00434 4.1133 5.00187 4.11182L5.00406 4.11328ZM16.7724 3.77002L17.2851 3.25757L17.2848 3.25732L16.7724 3.77002Z"/>
</svg>
