<svg width="32" height="37" viewBox="0 0 32 37" fill="none" xmlns="http://www.w3.org/2000/svg">
<path fill-rule="evenodd" clip-rule="evenodd" d="M30.1028 9.9126C30.8622 9.91277 31.4775 10.5277 31.4775 11.2876L31.4739 11.6301C31.4569 12.4296 31.3806 13.2287 31.2424 14.0134L31.2419 14.0156C31.0983 14.8212 30.8943 15.6223 30.6277 16.3955C28.5982 22.2885 23.2895 26.3776 17.1624 26.9141V28.9375H20.4949C21.2547 28.9375 21.8699 29.5527 21.8699 30.3125C21.8699 31.0723 21.2547 31.6875 20.4949 31.6875H17.1624V32.8525L17.1602 32.9314C17.1601 32.9323 17.16 32.9332 17.1599 32.9341V35.0225C17.1599 35.7822 16.5447 36.3975 15.7849 36.3975C15.0255 36.3973 14.4099 35.7824 14.4099 35.0225V31.6875H11.0771C10.3178 31.6873 9.70239 31.0724 9.70239 30.3125C9.70239 29.5526 10.3178 28.9377 11.0771 28.9375H14.4124V26.9153C14.054 26.8849 13.6961 26.8427 13.3398 26.7869C13.3378 26.7866 13.3358 26.7862 13.3337 26.7859C13.3323 26.7857 13.3308 26.7856 13.3293 26.7854C11.7366 26.5398 10.7308 26.2443 9.1521 25.5061C8.73887 25.3133 8.09848 24.98 7.69751 24.7354C7.69339 24.7329 7.68918 24.7305 7.68506 24.728C6.9136 24.2605 6.17405 23.722 5.4895 23.1277L5.4873 23.126C5.04679 22.7414 4.18674 21.8661 3.76855 21.3784L3.76489 21.3743L3.76147 21.3701C1.43473 18.5964 0.135976 15.084 0.0959473 11.4602L0.0949707 11.2876C0.0949707 10.5278 0.710186 9.9126 1.46997 9.9126C2.22976 9.9126 2.84497 10.5278 2.84497 11.2876L2.84814 11.572C2.91302 14.509 3.98054 17.3508 5.86694 19.606C7.07979 21.0453 8.60357 22.2176 10.3154 23.0164L10.3162 23.0166C11.4398 23.5419 12.6124 23.8904 13.7544 24.0696C14.4205 24.174 15.1042 24.2275 15.7849 24.2275C21.3086 24.2275 26.2285 20.7203 28.0244 15.502L28.0251 15.5C28.3931 14.4381 28.3426 14.6498 28.5317 13.5417L28.5322 13.5391L28.5327 13.5366C28.6462 12.8922 28.7101 12.2321 28.7244 11.571L28.7275 11.2876C28.7275 10.5278 29.343 9.9126 30.1028 9.9126ZM9.89185 23.9221C9.75531 23.8588 9.60053 23.8844 9.49268 23.9753C9.60072 23.8843 9.75585 23.8588 9.89258 23.9226L9.89185 23.9221Z" fill="black"/>
<path fill-rule="evenodd" clip-rule="evenodd" d="M15.7849 0.75C20.3813 0.75 24.4838 3.7766 25.8477 8.14282C26.4305 10.084 26.4803 12.1562 25.9355 14.1143C25.738 14.8495 25.2739 15.9228 24.875 16.6243L24.8684 16.6306C22.979 19.8393 19.5126 21.825 15.7849 21.825C11.7279 21.8249 7.99101 19.4568 6.25586 15.7876C5.2968 13.7673 5.03124 11.8336 5.38232 9.61841L5.38257 9.61646C5.53434 8.67008 5.81342 7.74717 6.21729 6.87305L6.21875 6.86963C7.93085 3.20171 11.6959 0.750021 15.7849 0.75ZM15.7874 3.5C12.7462 3.50004 9.97357 5.32405 8.71118 8.03027L8.71094 8.03003C8.23588 9.06337 7.99517 10.1876 7.99976 11.3218C8.00648 12.5109 8.27329 13.6172 8.74121 14.6096C9.98766 17.2424 12.7948 19.0725 15.7849 19.0725C18.5734 19.0725 21.167 17.5673 22.5515 15.1438L22.554 15.1399L22.5562 15.136C23.4255 13.6462 23.7354 11.8695 23.49 10.1514C23.4296 9.73107 23.3871 9.52572 23.2693 9.11792C22.3132 5.81393 19.2328 3.5 15.7874 3.5Z" fill="black"/>
</svg>
