<svg width="24" height="37" viewBox="0 0 24 37" xmlns="http://www.w3.org/2000/svg">
<path d="M7.94861 0.501709C8.67502 0.538681 9.25256 1.13878 9.25256 1.875V4.48242H13.5399C14.2999 4.48242 14.9147 5.0978 14.9149 5.85718C14.9149 6.61696 14.2997 7.23242 13.5399 7.23242H9.25256V13.1311C9.87854 12.6675 10.5793 12.3155 11.3204 12.1023C11.8047 11.9613 12.7025 11.8517 13.2086 11.8574L13.2274 11.8579C14.4284 11.8939 15.5839 12.2882 16.5577 13.0005C16.9223 13.2672 17.3698 13.7142 17.6732 14.0515L17.7186 14.1045L17.7201 14.1064L17.7218 14.1084C18.612 15.2153 19.1075 16.6004 19.1075 18.0149C19.1075 18.8948 18.9184 19.7495 18.5543 20.5527L18.5553 20.5535C17.4027 23.0911 16.8019 25.6275 16.7548 28.0964V28.0996C16.7526 28.1991 16.7526 28.2955 16.7526 28.405L16.755 28.6702C16.7801 29.9624 16.9929 30.7605 17.3839 31.4316L17.4349 31.5171C17.6964 31.9447 18.0563 32.3834 18.4537 32.7505C18.9244 33.1853 19.465 33.5 19.9047 33.7007C20.4777 33.9287 21.0552 33.9929 21.6307 33.9001C22.3837 33.7762 23.0892 34.2938 23.2076 35.041L23.2924 35.5742L23.1478 35.7053C22.9894 36.1681 22.5893 36.534 22.0646 36.6174L22.0621 36.6179L22.0597 36.6182C21.7554 36.665 21.4391 36.6924 21.1224 36.6924C20.3632 36.6924 19.6106 36.5438 18.8881 36.2566L18.8859 36.2559L18.8839 36.2549C18.5713 36.129 17.34 35.5 16.587 34.7698C15.9723 34.203 15.4138 33.5138 15.0067 32.8171L15.0065 32.8167C14.2784 31.5694 13.9999 30.2098 13.9999 28.405C13.9999 28.3431 14.0007 28.2808 14.0013 28.2251C14.002 28.1674 14.0026 28.1156 14.0026 28.0649V28.0554L14.0028 28.0457C14.0582 25.1709 14.7542 22.2677 16.049 19.4177C16.2546 18.9633 16.3575 18.491 16.3575 18.0125C16.3575 17.2349 16.0831 16.4581 15.579 15.8328L15.5778 15.8313L15.5768 15.8298C15.3135 15.5008 15.1227 15.3279 14.7474 15.0913C14.2683 14.7908 13.7229 14.6246 13.153 14.6069H13.1481C12.6345 14.5926 12.5787 14.6029 12.0846 14.7454L12.0848 14.7456C11.519 14.9089 10.9703 15.225 10.5077 15.6633L10.5045 15.6665L10.5013 15.6694C9.82076 16.303 9.4193 17.09 9.25256 18.0132V34.625C9.25256 35.385 8.63712 35.9998 7.87781 36C7.11802 36 6.50256 35.3848 6.50256 34.625V7.3772C6.50257 7.3485 6.50348 7.3214 6.505 7.29614V7.23242H2.21497C1.45518 7.23242 0.839966 6.61721 0.839966 5.85742L0.841675 5.78638C0.878639 5.05992 1.47879 4.48242 2.21497 4.48242H6.50256V1.875C6.50256 1.11522 7.11778 0.5 7.87756 0.5L7.94861 0.501709Z"/>
</svg>
