<svg width="38" height="38" viewBox="0 0 38 38" xmlns="http://www.w3.org/2000/svg">
<path d="M34.59 18.75C34.59 10.1896 27.6504 3.25 19.09 3.25C10.5296 3.25 3.58997 10.1896 3.58997 18.75C3.58997 27.3104 10.5296 34.25 19.09 34.25V37.5C8.73463 37.5 0.339966 29.1053 0.339966 18.75C0.339966 8.39466 8.73463 0 19.09 0C29.4453 0 37.84 8.39466 37.84 18.75C37.84 29.1053 29.4453 37.5 19.09 37.5V34.25C27.6504 34.25 34.59 27.3104 34.59 18.75Z"/>
<path d="M16.59 18.75C16.59 17.3693 17.7093 16.25 19.09 16.25C20.4707 16.25 21.59 17.3693 21.59 18.75C21.59 20.1307 20.4707 21.25 19.09 21.25V24.25C22.1275 24.25 24.59 21.7876 24.59 18.75C24.59 15.7124 22.1275 13.25 19.09 13.25C16.0524 13.25 13.59 15.7124 13.59 18.75C13.59 21.7876 16.0524 24.25 19.09 24.25V21.25C17.7093 21.25 16.59 20.1307 16.59 18.75Z"/>
</svg>
