<svg width="32" height="41" viewBox="0 0 32 41" xmlns="http://www.w3.org/2000/svg">
<path fill-rule="evenodd" clip-rule="evenodd" d="M30.5486 0.501682C30.5967 0.500383 30.6449 0.501571 30.6931 0.505345C30.7049 0.506248 30.7167 0.507553 30.7285 0.508763C30.7393 0.509894 30.7502 0.511034 30.761 0.512425C30.7748 0.514169 30.7885 0.516362 30.8022 0.518528C30.8114 0.519998 30.8206 0.521506 30.8298 0.523167C30.8449 0.52586 30.86 0.528749 30.875 0.531956C30.8804 0.533117 30.8857 0.53439 30.8911 0.535618C31.0577 0.573285 31.2199 0.64231 31.3686 0.745091L31.3691 0.747288C31.9603 1.15863 32.1292 1.95143 31.772 2.56467L31.7727 2.5676C31.7548 2.59834 31.7359 2.62892 31.7153 2.65866C31.2636 3.31579 30.8489 3.97402 30.4487 4.67551L30.4482 4.67502C29.9292 5.59396 29.9126 5.6234 29.4575 6.57712L29.4577 6.57737C27.6783 10.3152 26.7421 14.2747 26.6721 18.3496V18.3559L26.6719 18.3623C26.6674 18.5121 26.6675 18.6666 26.6675 18.8374C26.6675 20.9652 26.9111 23.0987 27.3911 25.1792L27.4055 25.2488C27.4097 25.2716 27.4142 25.2938 27.4184 25.3156C27.4868 25.603 27.5463 25.839 27.6203 26.1145C27.6404 26.1841 27.6614 26.2576 27.6836 26.3376L27.7724 26.6516C28.1207 27.8553 28.5363 29.0168 29.0344 30.1609C29.3519 30.8904 29.7004 31.6162 30.072 32.3137L30.104 32.3772C30.1168 32.4044 30.1295 32.4307 30.1416 32.4563C30.5704 33.2587 30.6064 33.3162 31.1428 34.1618C31.1447 34.1648 31.1466 34.1677 31.1484 34.1706C31.3353 34.4643 31.5207 34.7453 31.7163 35.0268L31.895 35.2842V35.3916C31.9054 35.4239 31.9142 35.4565 31.9221 35.4892C31.9232 35.4938 31.9245 35.4983 31.9255 35.5029C31.9386 35.5594 31.9481 35.6164 31.9538 35.6736C31.9554 35.6887 31.9567 35.7038 31.9577 35.719C31.9585 35.7304 31.959 35.7419 31.9595 35.7534C31.9599 35.7631 31.9602 35.7728 31.9604 35.7824C31.9606 35.7894 31.9606 35.7964 31.9607 35.8034C31.9608 35.8192 31.9608 35.835 31.9604 35.8508C31.9603 35.8562 31.9599 35.8615 31.9597 35.8669C31.9439 36.283 31.741 36.6876 31.3686 36.945L31.3581 36.9524L31.3474 36.9594C31.3452 36.9609 31.3428 36.9619 31.3406 36.9634C31.1665 37.0776 30.9797 37.1427 30.7981 37.1706C30.7951 37.1711 30.7921 37.1716 30.789 37.1721C30.7825 37.173 30.776 37.1739 30.7695 37.1748C30.7414 37.1786 30.7132 37.1818 30.6848 37.1838C30.6826 37.184 30.6804 37.1839 30.6782 37.1841C30.6481 37.1861 30.6178 37.1875 30.5874 37.1875L30.5869 37.1872C30.1508 37.1871 29.7205 36.9786 29.4546 36.5937L29.4536 36.5923C29.3854 36.4932 29.3188 36.3946 29.2529 36.2964C29.1614 36.1602 29.0711 36.024 28.9814 35.8855L28.8271 35.6443L28.8257 35.6423C28.8064 35.6116 28.7876 35.5814 28.769 35.5517C28.5898 35.2681 28.4416 35.0264 28.3022 34.79C28.09 34.433 27.8982 34.0917 27.6423 33.6179L27.6411 33.6157L27.6401 33.6135C27.2322 32.8492 26.8506 32.057 26.5051 31.2602C26.2866 30.7563 26.11 30.3176 25.9184 29.8032L25.9182 29.8034C25.5829 28.9084 25.2837 27.9874 25.0307 27.071L25.0303 27.0698C24.9108 26.6349 24.8099 26.2429 24.708 25.8037L24.7077 25.803C24.2833 23.9686 24.03 22.0956 23.9463 20.2175H17.5022V27.4565C20.4975 28.0917 22.7522 30.7518 22.7522 33.935C22.7521 37.4476 19.7965 40.56 16.1272 40.56L15.987 40.5586C15.9846 40.5585 15.9822 40.5584 15.9797 40.5583C15.9774 40.5584 15.975 40.5585 15.9726 40.5586L15.8325 40.56C12.1632 40.56 9.20754 37.4476 9.2075 33.935C9.20751 30.7518 11.4622 28.0917 14.4575 27.4565V20.2175H8.01341C7.92964 22.0956 7.67641 23.9686 7.25194 25.803L7.25169 25.8037C7.14974 26.2429 7.04886 26.6349 6.92943 27.0698L6.92894 27.071C6.67596 27.9874 6.37679 28.9084 6.04149 29.8034L6.04124 29.8032C5.84973 30.3176 5.67313 30.7563 5.45457 31.2602C5.10904 32.057 4.72752 32.8492 4.31956 33.6135L4.31859 33.6157L4.31737 33.6179C4.06133 34.0919 3.86957 34.4333 3.65721 34.7905C3.51165 35.0373 3.35657 35.2901 3.16649 35.5903C3.15575 35.6074 3.14499 35.6248 3.13402 35.6423L3.13255 35.6443L2.97825 35.8855C2.88493 36.0297 2.79092 36.1715 2.69554 36.3132C2.63333 36.4059 2.57037 36.4989 2.50609 36.5923L2.50511 36.5937C2.23914 36.9785 1.80885 37.1874 1.37279 37.1875L1.37254 37.1872L1.3723 37.1875C1.3418 37.1875 1.31144 37.1861 1.28123 37.1841C1.27904 37.1839 1.27684 37.184 1.27464 37.1838C1.24614 37.1818 1.21784 37.1786 1.18968 37.1748C1.18359 37.174 1.17748 37.1732 1.17137 37.1723C1.16646 37.1716 1.16162 37.1704 1.15672 37.1697C0.977154 37.1414 0.792686 37.0769 0.620589 36.9643C0.617892 36.9626 0.614972 36.9612 0.612288 36.9594L0.601546 36.9524L0.591048 36.945C0.218856 36.6877 0.0156735 36.2833 -0.000261062 35.8674C-0.000559713 35.8599 -0.000572168 35.8524 -0.000749343 35.8449C-0.00100614 35.8333 -0.0010302 35.8217 -0.000993484 35.81C-0.000978307 35.8006 -0.000958266 35.7912 -0.000749343 35.7817C-0.000482079 35.7704 -7.4051e-05 35.7591 0.00047136 35.7478C0.000928023 35.738 0.00127122 35.7282 0.0019362 35.7185C0.00245706 35.711 0.00324578 35.7035 0.00388933 35.696C0.0109106 35.613 0.0255039 35.5303 0.0478346 35.4489C0.0490213 35.4446 0.0502667 35.4403 0.0514968 35.436C0.0556818 35.4213 0.0599876 35.4067 0.0646803 35.3921V35.2842L0.243391 35.0268C0.439027 34.7453 0.624352 34.4643 0.811262 34.1706C0.813128 34.1677 0.815024 34.1648 0.816878 34.1618C1.35327 33.3162 1.38914 33.2586 1.81785 32.4563C1.82998 32.4307 1.84286 32.4044 1.8557 32.3772L1.88768 32.3137C2.2593 31.6162 2.60778 30.8904 2.92528 30.1609C3.42335 29.0168 3.83895 27.8553 4.18724 26.6516L4.27611 26.3376C4.29709 26.2618 4.31735 26.1918 4.33641 26.1255C4.41181 25.8452 4.47177 25.6068 4.541 25.3156C4.5452 25.2938 4.55003 25.2716 4.55418 25.2488L4.56859 25.1792C5.04861 23.0987 5.29222 20.9652 5.29222 18.8374C5.29222 18.6666 5.2923 18.5121 5.28783 18.3623L5.28758 18.3559V18.3496C5.21756 14.2747 4.28136 10.3152 2.50194 6.57737L2.50218 6.57712C2.0471 5.62339 2.03047 5.59398 1.51146 4.67502L1.51097 4.67551C1.1108 3.97401 0.696067 3.3158 0.244368 2.65866C0.223808 2.62891 0.204899 2.59835 0.186995 2.5676L0.187483 2.56443C-0.169448 1.9513 -0.000542939 1.1586 0.590315 0.747288L0.591048 0.745091C0.739685 0.642356 0.901839 0.573304 1.06834 0.535618C1.07371 0.534389 1.07907 0.533118 1.08446 0.531956C1.0994 0.528763 1.11437 0.525852 1.12938 0.523167C1.13905 0.521414 1.14874 0.519825 1.15843 0.518284C1.17153 0.516229 1.18461 0.514097 1.19774 0.512425C1.20911 0.510953 1.22053 0.509947 1.23192 0.508763C1.2434 0.507592 1.25485 0.506225 1.26634 0.505345C1.31444 0.501567 1.3626 0.500404 1.41063 0.501682C1.41429 0.501785 1.41795 0.502039 1.42161 0.502171C1.8189 0.515919 2.20533 0.701187 2.46336 1.03684L2.50487 1.09397L2.5056 1.09494C2.62406 1.2668 2.74021 1.43884 2.85448 1.61155L2.8557 1.61277C2.91323 1.69985 2.9701 1.7872 3.02659 1.87473C3.044 1.90162 3.06128 1.92859 3.0786 1.95554C3.10203 1.99211 3.12539 2.02873 3.14866 2.0654C3.40736 2.47165 3.65721 2.88446 3.90111 3.31199L3.90013 3.31247C3.94034 3.38339 3.97727 3.45089 4.01268 3.51487C4.37137 4.15195 4.59169 4.5807 4.91795 5.25681C4.93076 5.28054 4.94339 5.30495 4.95677 5.32956L4.98875 5.39206L4.98973 5.39377L4.99046 5.39524C6.81454 9.22967 7.83276 13.2893 8.01658 17.4675H14.4575C14.4575 15.755 14.4551 14.0426 14.4551 12.3301C14.4551 11.5219 15.1756 10.9632 15.9797 10.9631C16.7839 10.963 17.5046 11.5218 17.5046 12.3301C17.5046 14.0426 17.5022 15.755 17.5022 17.4675H23.9431C24.1269 13.2893 25.1451 9.22967 26.9692 5.39524L26.97 5.39377L26.9709 5.39206L27.0029 5.32956C27.0165 5.30456 27.0292 5.27968 27.0422 5.25559C27.3682 4.58019 27.5883 4.15151 27.9468 3.51487C27.9822 3.45086 28.0193 3.38343 28.0596 3.31247L28.0586 3.31199C28.3419 2.81526 28.6329 2.33805 28.937 1.86838C28.9922 1.78295 29.0478 1.69777 29.104 1.61277L29.105 1.61155C29.2193 1.4388 29.3356 1.26684 29.4541 1.09494L29.4548 1.09397L29.4963 1.03684C29.7544 0.701055 30.1411 0.515802 30.5386 0.502171C30.5419 0.502052 30.5452 0.501777 30.5486 0.501682ZM15.2058 30.1709C14.553 30.3299 13.9441 30.6629 13.4516 31.1316C13.077 31.4897 13.0325 31.5422 12.7761 31.9924L12.7742 31.9961L12.772 31.9995C12.4662 32.5262 12.2884 33.1327 12.2585 33.7507C12.2571 33.7879 12.2542 33.8242 12.2497 33.8593L12.2522 33.935C12.2522 34.5636 12.3969 35.1592 12.6814 35.7124L12.6819 35.7131C13.3083 36.9332 14.5388 37.7487 15.9626 37.8066L15.9797 37.8069L15.9971 37.8066C17.4208 37.7487 18.6514 36.9331 19.2778 35.7131L19.2783 35.7124C19.5628 35.1592 19.7075 34.5636 19.7075 33.935L19.7099 33.8593C19.7055 33.8242 19.7026 33.7879 19.7012 33.7507C19.6712 33.1327 19.4935 32.5262 19.1877 31.9995L19.1855 31.9961L19.1836 31.9924C18.9272 31.5422 18.8827 31.4897 18.508 31.1316C18.0155 30.6629 17.4067 30.3299 16.7539 30.1709C16.1754 30.0351 15.7843 30.0351 15.2058 30.1709Z"/>
</svg>
