<svg width="25" height="35" viewBox="0 0 25 35" fill="none" xmlns="http://www.w3.org/2000/svg">
<path fill-rule="evenodd" clip-rule="evenodd" d="M12.6902 0.502686C12.7507 0.502913 12.8112 0.503548 12.8716 0.504639C18.992 0.604529 24.1468 5.20702 24.9038 11.2957L24.9041 11.2986C24.957 11.7328 24.9801 12.2277 24.9739 12.75C24.9741 12.7783 24.9749 12.8066 24.9749 12.835C24.9749 13.6438 24.8959 14.4514 24.7397 15.2417C24.6473 15.7597 24.5282 16.2545 24.3828 16.6946L24.3816 16.6978C23.7152 18.6968 22.485 20.5598 20.9766 21.9456L20.9736 21.948C19.1014 23.6572 16.7698 24.7315 14.2859 25.0588V27.78H18.5261C19.4234 27.7803 20.1509 28.507 20.1509 29.405C20.1508 30.3029 19.4235 31.0298 18.5261 31.03H14.2883V33.2678C14.2882 34.1653 13.5611 34.8924 12.6633 34.8926C12.6598 34.8926 12.6563 34.8921 12.6528 34.8921C12.6493 34.8921 12.6458 34.8926 12.6423 34.8926C11.7445 34.8924 11.0175 34.1653 11.0173 33.2678V31.03H6.77954C5.88216 31.0298 5.15485 30.3029 5.15479 29.405C5.15479 28.507 5.88224 27.7803 6.77954 27.78H11.0198V25.0588C8.53588 24.7315 6.20423 23.6572 4.33203 21.948L4.3291 21.9456C2.8207 20.5598 1.59042 18.6968 0.924072 16.6978L0.922852 16.6946C0.776114 16.2503 0.655812 15.7502 0.562988 15.2268C0.408812 14.4412 0.330811 13.6387 0.330811 12.835C0.330811 12.8038 0.331553 12.7726 0.331787 12.7415C0.32595 12.2223 0.348947 11.7305 0.401611 11.2986L0.401855 11.2957C1.15885 5.20714 6.31355 0.604706 12.4338 0.504639C12.4942 0.503546 12.5547 0.502915 12.6152 0.502686C12.6243 0.50267 12.6333 0.502438 12.6423 0.502441H12.6633C12.6722 0.502438 12.6813 0.50267 12.6902 0.502686ZM12.6528 3.75C11.3589 3.75144 10.1167 4.01725 8.94971 4.54053L8.94873 4.54102C8.91346 4.55679 8.87776 4.5707 8.84204 4.58374C8.60271 4.69422 8.36873 4.81462 8.14087 4.94482C8.10091 4.97445 8.05954 5.00288 8.01636 5.02905L7.77734 5.17383C7.20101 5.54161 6.66529 5.97755 6.1792 6.47144C6.13278 6.51881 6.08387 6.56223 6.03345 6.60254C5.83785 6.80944 5.65134 7.02521 5.47559 7.25C5.44006 7.31489 5.40026 7.37845 5.35498 7.43945C4.93319 8.00844 4.58006 8.62501 4.30664 9.27026L4.30566 9.27002C4.27298 9.34694 4.23476 9.41958 4.19238 9.48828C4.0194 9.92504 3.87955 10.3791 3.77539 10.8474C3.77227 10.9237 3.76402 11.0006 3.74976 11.0776L3.74902 11.0823L3.74805 11.0869C3.63796 11.6572 3.58081 12.2455 3.58081 12.8325C3.58081 13.545 3.66259 14.2528 3.82446 14.9331L3.82544 14.937C3.84566 15.0233 3.85838 15.1093 3.8645 15.1946C3.89707 15.3108 3.9317 15.4298 3.96973 15.5518C4.07873 15.8933 4.20666 16.2253 4.35205 16.5466C4.38896 16.6038 4.42252 16.6638 4.45264 16.7266L4.45361 16.7288L4.45459 16.7307C5.92751 19.8276 9.07139 21.849 12.4895 21.9155C12.5152 21.916 12.5409 21.9163 12.5667 21.9165C12.5954 21.9168 12.6241 21.9172 12.6528 21.9172C16.1339 21.9132 19.3547 19.8769 20.8511 16.7307L20.8521 16.7288L20.853 16.7266C20.883 16.6641 20.9166 16.6043 20.9534 16.5474C21.0989 16.2258 21.2269 15.8935 21.3359 15.5518C21.374 15.4299 21.4086 15.3108 21.4412 15.1946C21.4473 15.1093 21.46 15.0233 21.4802 14.937L21.4812 14.9331C21.6431 14.2528 21.7249 13.545 21.7249 12.8325C21.7249 12.2455 21.6677 11.6572 21.5576 11.0869L21.5566 11.0823L21.5559 11.0776C21.5416 11.0002 21.5331 10.9229 21.53 10.8462C21.4259 10.3783 21.2861 9.92484 21.1133 9.48853C21.0709 9.41978 21.0327 9.347 21 9.27002L20.999 9.27026C20.7256 8.62499 20.3725 8.00845 19.9507 7.43945C19.9057 7.3788 19.8659 7.31572 19.8306 7.25122C19.6544 7.0259 19.4678 6.80941 19.2717 6.60205C19.2215 6.56186 19.1727 6.51864 19.1265 6.47144C18.6404 5.97753 18.1047 5.54161 17.5283 5.17383L17.2893 5.02905C17.2458 5.00268 17.2041 4.97422 17.1638 4.94434C16.9359 4.81416 16.702 4.6937 16.4626 4.58325C16.4273 4.57031 16.3919 4.55664 16.3569 4.54102L16.356 4.54053C15.1889 4.01724 13.9468 3.75143 12.6528 3.75Z" fill="black"/>
</svg>
