<svg width="36" height="17" viewBox="0 0 36 17" fill="none" xmlns="http://www.w3.org/2000/svg">
<path fill-rule="evenodd" clip-rule="evenodd" d="M27.743 0.504887C27.7411 0.504841 27.7337 0.504611 27.7138 0.503667L27.7079 0.503382C25.9707 0.418933 24.2126 1.39327 22.843 2.35889C21.0992 3.5883 19.6549 5.25 17.3386 5.25C16.0772 5.25 13.9497 3.68268 13.5224 3.29468C11.9569 1.89356 10.2088 0.584612 8.01118 0.564946C5.6169 0.564946 3.76091 1.9919 2.14326 3.61622C1.37335 4.38931 0.690377 5.18322 0.34858 5.67066H0.349068C-0.095886 6.30092 0.0760432 7.1513 0.67524 7.58057L0.688424 7.58985C0.923673 7.75266 1.19826 7.83497 1.47285 7.83497C1.92133 7.83485 2.34195 7.61588 2.59907 7.24878L2.60688 7.23707L2.63488 7.20154C3.95667 5.52449 5.652 3.31495 8.01508 3.31495C9.55495 3.34105 10.7017 4.45675 11.7844 5.42896C12.821 6.36763 14.9063 8.12061 17.3386 8.125C20.2353 8.13024 22.1957 6.1726 24.4226 4.56958C25.3848 3.87693 26.4846 3.25245 27.7014 3.25245C28.6362 3.27562 29.5509 3.66279 30.4157 4.2771C31.2815 4.89217 32.0432 5.6971 32.6494 6.45484L32.6503 6.4563L32.6516 6.45752C32.9145 6.78374 33.3064 6.96998 33.7228 6.96998C34.0264 6.9699 34.3346 6.87014 34.5891 6.66285L34.5888 6.6626C35.1628 6.1954 35.2789 5.33663 34.7946 4.73609C33.9287 3.6586 33.055 2.79163 32.1281 2.11499C30.8415 1.19648 29.3727 0.554265 27.7731 0.505376L27.758 0.504887H27.743C27.744 0.504911 27.7436 0.504888 27.7426 0.504887H27.743ZM27.743 0.504887C27.744 0.504911 27.7436 0.504888 27.7426 0.504887H27.743Z" fill="black"/>
<path fill-rule="evenodd" clip-rule="evenodd" d="M27.1654 8.50673C27.1636 8.50669 27.1566 8.50645 27.1379 8.50549L27.1323 8.5052C25.4943 8.41939 23.8366 9.40947 22.5452 10.3907C20.9011 11.64 19.5393 13.3285 17.3552 13.3285C16.1659 13.3285 14.1599 11.7359 13.757 11.3416C12.281 9.91785 10.6327 8.58775 8.56058 8.56776C6.30306 8.56776 4.55308 10.0178 3.02782 11.6683C2.30188 12.4539 1.65792 13.2607 1.33565 13.756H1.33611C0.916567 14.3964 1.07868 15.2605 1.64365 15.6968L1.65608 15.7062C1.87789 15.8716 2.13679 15.9553 2.3957 15.9553C2.81856 15.9551 3.21516 15.7326 3.45759 15.3596L3.46496 15.3477L3.49136 15.3116C4.73766 13.6075 6.33615 11.3622 8.56427 11.3622C10.0162 11.3887 11.0974 12.5225 12.1183 13.5104C13.0957 14.4642 15.0618 16.2455 17.3552 16.25C20.0865 16.2553 21.9349 14.266 24.0346 12.6371C24.9419 11.9333 25.9788 11.2987 27.1261 11.2987C28.0076 11.3222 28.8701 11.7157 29.6855 12.3399C30.5018 12.9649 31.2199 13.7829 31.7915 14.5528L31.7924 14.5543L31.7936 14.5556C32.0415 14.887 32.411 15.0763 32.8037 15.0763C33.0899 15.0762 33.3805 14.9748 33.6204 14.7642L33.6202 14.764C34.1614 14.2892 34.2708 13.4166 33.8143 12.8063C32.9978 11.7114 32.174 10.8304 31.3 10.1429C30.0869 9.2095 28.702 8.55691 27.1938 8.50723L27.1795 8.50673H27.1654C27.1663 8.50676 27.1659 8.50673 27.165 8.50673H27.1654ZM27.1654 8.50673C27.1663 8.50676 27.1659 8.50673 27.165 8.50673H27.1654Z" fill="black"/>
</svg>
