<svg width="41" height="36" viewBox="0 0 41 36" xmlns="http://www.w3.org/2000/svg">
<path d="M29.3575 1.25L29.4923 1.25195C29.4983 1.25204 29.5377 1.25158 29.5558 1.25195L29.5548 1.25293C30.4162 1.26938 31.2523 1.39288 32.0499 1.61133L32.0704 1.61719L32.2286 1.66211L32.2277 1.66309C32.2578 1.67189 32.2877 1.67977 32.3165 1.68848H32.3175C32.3482 1.69781 32.3825 1.70884 32.4171 1.71973C34.0653 2.23623 35.5354 3.15818 36.7062 4.38281C38.4711 6.21694 39.5596 8.70997 39.5597 11.4521C39.5597 11.9358 39.1688 12.3268 38.6857 12.3271H38.6847C38.2012 12.3269 37.8097 11.9356 37.8097 11.4521C37.8097 10.7216 37.7152 10.0132 37.5402 9.33691C37.5133 9.28493 37.4892 9.22953 37.4728 9.16992V9.16895C36.4584 5.54139 33.1179 3.00599 29.3458 3C26.9334 3.00334 24.6321 4.04187 23.0294 5.84961C22.9959 5.88742 22.9594 5.91877 22.924 5.94727C22.6421 6.27493 22.3852 6.62471 22.1554 6.99316C22.1379 7.03996 22.1167 7.08663 22.09 7.13184V7.13281C21.3163 8.43247 20.9055 9.92686 20.9054 11.4521V24.8447C20.9054 24.8598 20.9032 24.8743 20.9025 24.8877V32.4248C20.9025 32.9084 20.5111 33.2998 20.0275 33.2998C19.5441 33.2997 19.1525 32.9085 19.1525 32.4248V25.0312C19.1394 24.9719 19.13 24.9096 19.13 24.8447V11.4521C19.1299 9.92691 18.7191 8.43251 17.9454 7.13281L17.9445 7.13184C17.9182 7.08746 17.8975 7.04143 17.88 6.99512C16.4319 4.67236 13.8918 3.10134 10.9865 3.00488L10.7023 3C7.01411 3.0001 3.73668 5.41899 2.63879 8.91406C2.63732 8.91917 2.63597 8.92529 2.63391 8.93164C2.62403 8.96215 2.61377 8.99169 2.60266 9.02734C2.58809 9.07616 2.57478 9.12482 2.56165 9.17188L2.56067 9.1709C2.55616 9.18721 2.55091 9.20239 2.54602 9.2168C2.50227 9.36741 2.46325 9.5176 2.42883 9.66504C2.31871 10.1361 1.84773 10.4273 1.37708 10.3174C0.906189 10.2072 0.614852 9.73728 0.724731 9.2666C0.783387 9.01538 0.852625 8.76344 0.92981 8.5166C2.21251 4.22867 6.11633 1.2501 10.7023 1.25L11.1359 1.25879C15.1009 1.42537 18.482 3.86801 20.0167 7.30762C21.6069 3.74312 25.1813 1.25011 29.3322 1.25H29.3575Z"/>
</svg>
