<svg width="37" height="38" viewBox="0 0 37 38" xmlns="http://www.w3.org/2000/svg">
<path fill-rule="evenodd" clip-rule="evenodd" d="M28.9299 11.795C32.7779 11.795 36.0149 15.0474 36.0149 18.8751L36.0122 18.8756C36.2925 29.4944 27.797 37.4498 17.76 37.1275C11.6598 37.1275 5.63724 33.6825 2.74536 28.266C2.3918 27.6038 2.45419 26.9946 3.04248 26.625C3.63077 26.2554 4.39851 26.5393 4.66748 26.875C7.88044 30.885 12.3783 34.4405 17.7458 34.3775H17.7576C23.3573 34.3775 29.8873 30.8608 31.8442 25.3263C30.9328 25.6478 29.9825 25.965 28.9299 25.965C25.0343 25.9649 21.845 22.6984 21.845 18.88C21.845 14.9727 25.0227 11.7951 28.9299 11.795ZM28.9324 14.545C26.5422 14.5451 24.5974 16.4898 24.5974 18.88C24.5974 21.2234 26.5626 23.2149 28.9299 23.215C31.2089 23.215 33.2649 21.4093 33.2649 18.8775C33.2649 16.47 31.2928 14.545 28.9324 14.545Z"/>
<path fill-rule="evenodd" clip-rule="evenodd" d="M18.7822 0.500106C20.7855 0.479536 23.8151 0.814592 26.9707 2.5106C29.8313 4.08711 32.279 6.48265 33.8652 9.3441L33.8669 9.34727L33.8687 9.35069C34.2477 10.0572 33.9878 10.9457 33.2698 11.3277L33.2654 11.3302L33.261 11.3324C32.5672 11.6927 31.6783 11.4375 31.2971 10.735L31.321 10.7218L31.2922 10.7291C30.0081 8.30395 28.5361 6.5525 25.9231 5.07555L25.9224 5.07506C23.1961 3.53116 20.558 3.23372 18.8066 3.25011H18.7974C14.3159 3.25022 9.69429 5.4082 6.84229 8.87535L6.84082 8.87706C5.97511 9.9247 5.25683 11.0786 4.69824 12.3033C5.59151 11.8954 6.58423 11.6676 7.62988 11.6676C11.4456 11.6676 14.7099 14.9579 14.71 18.7474C14.71 22.5584 11.3895 25.8351 7.62744 25.8351C3.73145 25.835 0.594019 22.6052 0.54248 18.7501C0.54248 14.5131 2.02569 10.3848 4.72461 7.12486L4.72559 7.12364C8.11925 3.03867 13.4657 0.50845 18.7822 0.500106ZM7.62744 14.4149C5.23729 14.4149 3.29248 16.3599 3.29248 18.7501C3.32344 21.1085 5.24444 23.085 7.62744 23.0851C10.1334 23.0851 11.9599 21.2528 11.96 18.7501C11.96 16.3628 10.0005 14.4149 7.62744 14.4149Z"/>
</svg>
