<svg width="37" height="38" viewBox="0 0 37 38" fill="none" xmlns="http://www.w3.org/2000/svg">
<path fill-rule="evenodd" clip-rule="evenodd" d="M28.6663 33.9914L28.6653 33.9917L28.6677 33.9905L28.6663 33.9914Z" fill="black"/>
<path fill-rule="evenodd" clip-rule="evenodd" d="M28.6663 33.9914L28.6653 33.9917L28.6677 33.9905L28.6663 33.9914Z" fill="black"/>
<path fill-rule="evenodd" clip-rule="evenodd" d="M10.0381 1.3215C10.4608 0.73098 11.283 0.578756 11.8887 0.95626C12.687 1.48288 13.5727 1.88537 14.4299 2.30392C16.6941 3.40943 19.1079 4.20713 21.624 4.45333L21.6299 4.45391C22.0039 4.49051 22.3823 4.4924 22.7576 4.4924H22.7625C26.8623 4.4924 30.1393 3.09898 32.1743 1.92184L32.1807 1.91842C33.5425 1.125 34.2925 1.625 34.6675 2C35.0425 2.375 35.2126 3.25847 34.5454 3.91061L34.5457 3.91085C33.9876 4.4591 33.342 5.09914 32.6201 5.81369C30.9109 7.52352 28.4728 9.97421 26.8364 11.6228C29.19 12.1976 31.3078 13.5043 33.0471 15.1975C33.5177 15.6616 33.9154 16.1516 34.2769 16.6565C35.8623 18.8626 36.6999 21.4745 36.7 24.2024C36.7 27.3904 35.5877 30.3179 33.5159 32.7097L33.5142 32.7117C33.3136 32.9421 33.1102 33.1589 32.907 33.3621L32.9053 33.364C32.3898 33.8767 31.8309 34.3495 31.2439 34.7688C30.7101 35.1445 30.1251 35.449 29.562 35.7793C27.7584 36.6849 25.7647 37.1394 23.75 37.155H23.7449C20.3545 37.1549 16.0078 35.097 13.8279 32.5298L13.825 32.5264C12.7457 31.2436 11.8779 29.6256 11.4094 28.1426C11.3202 27.8616 11.2402 27.5773 11.1699 27.2903C8.31873 30.1231 5.45745 32.9454 2.65405 35.8249L2.64941 35.8298L2.64453 35.8345C2.38783 36.0912 2.03987 36.24 1.66748 36.24C1.31042 36.24 0.969297 36.1015 0.713379 35.8547L0.712891 35.8545C0.46233 35.6125 0.292568 35.2667 0.29248 34.8728C0.292503 34.5193 0.426668 34.1733 0.68042 33.9104L0.682373 33.9084C9.64503 24.6782 18.8824 15.7019 27.9644 6.58615C26.37 6.993 24.7384 7.21451 23.1064 7.24216C22.5928 7.24647 22.08 7.23809 21.5669 7.21091L21.5557 7.21042C18.3179 7.0021 16.0384 6.15383 13.0283 4.67575C11.977 4.15949 10.8332 3.58108 10.3572 3.24191L10.3472 3.23483L10.3374 3.2275C10.0675 3.02506 9.86428 2.72167 9.80005 2.35519L9.7981 2.34493L9.79663 2.33468C9.74366 1.99021 9.82123 1.62663 10.0339 1.32735C10.0345 1.32656 10.0351 1.32546 10.0356 1.32467C10.0364 1.32357 10.0373 1.32259 10.0381 1.3215ZM24.4524 14.0273C26.9854 14.1976 29.4738 15.3497 31.198 17.2307L31.2048 17.238C31.5849 17.6442 31.72 17.809 32.0447 18.2602C33.2899 19.9972 33.9501 22.0486 33.9524 24.2034V24.2192L33.9529 24.2351C34.0523 27.277 32.2112 30.6222 29.8193 32.4048C29.2378 32.8296 28.8305 33.0738 28.196 33.387C26.8097 34.0578 25.2874 34.3924 23.75 34.405C19.7953 34.405 15.1453 31.176 14.0286 27.3115L14.0276 27.3083C13.7796 26.5314 13.6287 25.7256 13.5728 24.9062C17.1988 21.2789 20.8289 17.6571 24.4524 14.0273ZM28.6663 33.9914L28.6653 33.9917L28.6677 33.9905L28.6663 33.9914Z" fill="black"/>
<path fill-rule="evenodd" clip-rule="evenodd" d="M28.6653 33.9917L28.6663 33.9914L28.6677 33.9905L28.6653 33.9917Z" fill="black"/>
</svg>
