<svg width="37" height="38" viewBox="0 0 37 38" xmlns="http://www.w3.org/2000/svg">
<path fill-rule="evenodd" clip-rule="evenodd" d="M17.6261 0.252922C24.2995 0.382954 30.7314 5.52246 30.7318 12.5874C30.7318 15.0086 29.8022 17.13 28.6976 19.2368C27.8673 20.8263 27.1865 22.149 26.9857 23.6816C26.4412 27.8562 29.12 32.1413 33.2472 33.2544L33.2501 33.2551C33.7924 33.403 34.3536 33.4999 34.9171 33.5427C35.6787 33.5985 36.2407 34.2628 36.1866 35.0142V35.0161L36.1864 35.0181C36.132 35.7337 35.5379 36.29 34.8167 36.29H34.7479C33.26 36.1777 31.8201 35.7608 30.472 35.1279C26.0172 32.9902 23.6133 28.1924 24.2555 23.3267C24.5272 21.2568 25.4542 19.4977 26.2557 17.9663C27.155 16.247 27.9793 14.5807 27.9793 12.5901C27.9793 5.0702 19.603 1.56184 13.337 3.62499L13.3368 3.62475C10.4301 4.58302 7.72425 7.23591 6.85484 10.2312C6.18631 12.6207 6.49457 14.9875 7.24839 17.3276C7.68016 18.6256 8.27668 19.8458 9.02964 20.9875C9.72844 22.0289 9.99414 22.7922 11.5165 23.8496C13.0388 24.907 14.9869 27.3807 14.9869 29.9351C14.9661 31.7098 14.3229 33.4223 13.1146 34.7327C11.7753 36.1855 9.87605 37.0175 7.90171 37.0176C4.42554 37.0175 1.48323 34.5296 0.913674 31.103L0.91343 31.1033C0.357298 27.8445 2.42215 24.7394 5.33848 23.4976C5.86716 23.2724 6.46114 23.0623 7.04136 22.9463C6.94074 22.8058 6.84145 22.6644 6.74497 22.5212L6.744 22.5198C5.83547 21.1662 5.12429 19.7047 4.63023 18.1721C3.71779 15.3452 3.39927 12.3836 4.20493 9.49413C5.32455 5.49825 8.56482 2.3021 12.4815 1.01244C14.142 0.466408 15.8825 0.235559 17.6261 0.252922ZM3.6229 30.6465H3.62339C3.97075 32.7427 5.76484 34.2649 7.89927 34.2649C9.10818 34.2649 10.2711 33.7563 11.0885 32.8679L11.089 32.8672C11.8284 32.0647 12.2342 31.0243 12.2342 29.9326C12.2342 27.8001 10.6408 25.9545 8.54014 25.6455C5.86562 25.2788 3.18719 27.9858 3.6229 30.6465Z"/>
</svg>
