<svg width="38" height="26" viewBox="0 0 38 26" xmlns="http://www.w3.org/2000/svg">
<path fill-rule="evenodd" clip-rule="evenodd" d="M35.6976 22.3474C36.4619 22.3475 37.0724 22.9697 37.0726 23.7222C37.0726 24.4836 36.4532 25.0949 35.6976 25.095H2.21521C1.46397 25.095 0.84021 24.4907 0.84021 23.7224L0.841919 23.6514C0.878894 22.925 1.47899 22.3474 2.21521 22.3474H35.6976Z"/>
<path fill-rule="evenodd" clip-rule="evenodd" d="M24.0289 5.16113C24.0323 5.16363 24.0354 5.16575 24.0377 5.16748C24.035 5.16549 24.0312 5.16269 24.0272 5.15967L24.0153 5.15063C24.0204 5.15462 24.0251 5.15824 24.0289 5.16113ZM23.8397 4.9751C23.8412 4.97697 23.8431 4.97956 23.8453 4.98242C23.8466 4.98402 23.848 4.9858 23.8496 4.98774C23.8509 4.98929 23.8522 4.99094 23.8536 4.99268C23.8543 4.99347 23.8551 4.99426 23.8558 4.99512C23.8537 4.99246 23.8515 4.99005 23.8496 4.98774C23.8458 4.98303 23.8428 4.97903 23.8407 4.97632C23.8391 4.9743 23.8379 4.9725 23.837 4.97144L23.8365 4.97095C23.8372 4.97181 23.8383 4.97333 23.8397 4.9751ZM24.6302 4.36255L24.6298 4.36182L24.6288 4.36108C24.6292 4.36152 24.6298 4.36212 24.6302 4.36255ZM25.4618 3.83545C25.4508 3.87093 25.4385 3.90596 25.4247 3.94043C25.4477 3.93306 25.471 3.92627 25.4943 3.92017C25.4858 3.89121 25.4745 3.86307 25.4618 3.83545Z"/>
<path fill-rule="evenodd" clip-rule="evenodd" d="M18.9576 0.25C19.2867 0.250004 19.6199 0.266609 19.9445 0.300049C20.2539 0.331022 21.6429 0.620423 21.9371 0.715332L21.9374 0.715088C21.9383 0.715409 21.9394 0.716006 21.9403 0.716309C21.9419 0.716799 21.9436 0.717018 21.9452 0.717529L21.9449 0.717773C23.0577 1.07486 24.0876 1.62625 25.0018 2.35156C25.2861 2.57612 25.5473 2.83157 25.8165 3.07446L25.8673 3.12305L25.8737 3.12915L25.8798 3.13574C26.2583 3.52811 26.5976 3.9706 26.9352 4.39941L26.9764 4.45483L26.9799 4.45947L26.983 4.46411C28.1093 6.09494 28.7028 8.01116 28.7028 9.99756L28.7006 10.209C28.6781 11.2647 28.4865 12.3015 28.1288 13.2944L28.129 13.2947C27.9845 13.6982 27.8133 14.0904 27.6173 14.47C30.3037 14.4764 32.9906 14.496 35.6769 14.46H35.6976C36.4315 14.46 37.0562 15.0472 37.0695 15.8054H37.0699C37.07 15.8096 37.0699 15.8137 37.0699 15.8179C37.07 15.8219 37.0702 15.826 37.0702 15.8301C37.0726 16.1845 36.9372 16.5294 36.6842 16.7891L36.6847 16.7896C36.6817 16.7927 36.6782 16.7957 36.6752 16.7988C36.6742 16.7998 36.6732 16.801 36.6722 16.802L36.672 16.8018C36.4306 17.0456 36.0936 17.2062 35.712 17.2095L35.7123 17.21C32.1276 17.2531 28.5428 17.21 24.9576 17.21H24.9442L21.7184 17.1821L23.972 14.874C25.2501 13.5579 25.9527 11.8283 25.9528 9.99756C25.9528 8.56719 25.5263 7.19777 24.7194 6.02783C24.4078 5.57622 24.3148 5.45739 23.9252 5.07129L23.9232 5.06934L23.9208 5.06714C23.9056 5.05189 23.8925 5.03798 23.8822 5.02637L23.8788 5.02246C23.6772 4.80115 23.5382 4.69607 23.3011 4.51172L23.298 4.50928L23.2946 4.50659C22.6326 3.9827 21.8941 3.58764 21.0975 3.33228C20.4288 3.11882 20.3762 3.10331 19.6779 3.0354V3.03589C19.4325 3.01317 19.1915 3.00003 18.9584 3C15.1073 3.00712 11.9666 6.14807 11.9601 9.99927C11.9603 10.9257 12.1371 11.8193 12.4865 12.6628L12.5587 12.8311L12.5597 12.833L12.5604 12.835C12.8474 13.4873 13.2149 14.0527 13.6783 14.5874C13.7654 14.6878 13.8545 14.7857 13.9408 14.874L16.1945 17.1821L12.9686 17.21H12.9628C12.9628 17.21 12.953 17.2101 12.9303 17.2102L12.837 17.2107C12.7562 17.2111 12.6386 17.2116 12.4899 17.2124C12.2069 17.2138 11.8099 17.2157 11.3329 17.2178C11.2843 17.2236 11.2332 17.227 11.1801 17.2273C8.18638 17.2497 5.18969 17.2519 2.19617 17.21L2.19055 17.2097H2.18469C1.83867 17.2009 1.49671 17.0626 1.2384 16.8018L1.23816 16.802C1.23722 16.8011 1.23641 16.7998 1.23547 16.7988C1.23236 16.7957 1.2288 16.7927 1.22571 16.7896L1.2262 16.7891C0.970273 16.5264 0.834848 16.1766 0.840454 15.8179V15.8054C0.856227 15.0575 1.46804 14.46 2.21521 14.46H2.2345C4.91489 14.4986 7.59637 14.48 10.277 14.48C10.3232 14.4751 10.3699 14.4725 10.4169 14.4724C10.4298 14.4724 10.4429 14.4722 10.4557 14.4722C10.282 14.3364 10.1457 14.1726 10.0463 13.9487C9.49176 12.7004 9.21009 11.3692 9.21008 9.99756C9.21008 7.39512 10.2254 4.9429 12.066 3.10498C13.9059 1.26544 16.355 0.250016 18.9576 0.25ZM24.0377 5.16748C24.0354 5.16575 24.0323 5.16363 24.0289 5.16113C24.0251 5.15824 24.0204 5.15462 24.0153 5.15063L24.0272 5.15967C24.0312 5.16269 24.035 5.16549 24.0377 5.16748ZM23.8453 4.98242C23.8431 4.97956 23.8412 4.97697 23.8397 4.9751L23.8365 4.97095L23.837 4.97144C23.8379 4.9725 23.8391 4.9743 23.8407 4.97632C23.8428 4.97903 23.8458 4.98303 23.8496 4.98774C23.8515 4.99005 23.8537 4.99246 23.8558 4.99512C23.8551 4.99426 23.8543 4.99347 23.8536 4.99268L23.8496 4.98774C23.848 4.9858 23.8466 4.98402 23.8453 4.98242ZM24.6298 4.36182L24.6302 4.36255L24.6288 4.36108L24.6298 4.36182ZM25.4247 3.94043C25.4385 3.90596 25.4508 3.87093 25.4618 3.83545C25.4745 3.86307 25.4858 3.89121 25.4943 3.92017C25.471 3.92627 25.4477 3.93306 25.4247 3.94043Z"/>
</svg>
