<svg width="22" height="38" viewBox="0 0 22 38" fill="none" xmlns="http://www.w3.org/2000/svg">
<path fill-rule="evenodd" clip-rule="evenodd" d="M18.4517 0.750729C18.5084 0.753377 18.5641 0.760053 18.6184 0.769283L18.6187 0.768795C18.6222 0.769374 18.6256 0.770385 18.6292 0.770992C18.6321 0.771509 18.635 0.771678 18.6379 0.772213L18.6377 0.772701C18.8147 0.804358 18.9987 0.872377 19.1687 0.989986L19.1685 0.990231C19.394 1.14621 19.5583 1.35905 19.656 1.59326L19.6565 1.59301C19.6577 1.59592 19.6587 1.59912 19.6599 1.60205C19.6606 1.60361 19.6615 1.60512 19.6621 1.60669L19.6619 1.60693C19.6957 1.68959 19.7239 1.78073 19.7417 1.87963L19.7422 1.88208L19.7427 1.88427C19.8052 2.24152 19.7252 2.60701 19.5217 2.90307L19.5212 2.9038C17.6869 5.56843 16.2673 8.6563 15.4214 11.8271L15.4209 11.8269C15.4094 11.8704 15.396 11.9123 15.3811 11.9524C15.1616 12.7929 14.9815 13.6412 14.8408 14.4961C14.8386 14.5324 14.8353 14.5702 14.8296 14.6091L14.8284 14.6177L14.8269 14.626C14.6873 15.478 14.5882 16.3537 14.5303 17.228L14.53 17.2278C14.5279 17.2647 14.5248 17.2988 14.5205 17.3293C14.5196 17.3442 14.5187 17.3592 14.5178 17.3745C14.5181 17.4018 14.5178 17.4324 14.5159 17.4653L14.5156 17.4678C14.5137 17.4993 14.5104 17.5285 14.5071 17.5542C14.5042 17.607 14.5016 17.6598 14.499 17.7126H19.7849C20.5108 17.7126 21.0834 18.2709 21.1528 18.9504L21.158 19.001V19.0173C21.1593 19.0419 21.1599 19.0668 21.1599 19.0918C21.1597 19.8359 20.5575 20.4692 19.7849 20.4692H14.4993C14.5018 20.5219 14.5042 20.5746 14.5071 20.6272C14.5084 20.6371 14.5098 20.6476 14.511 20.6584L14.5156 20.7144L14.5159 20.7168L14.5178 20.7705C14.518 20.7831 14.518 20.7952 14.5178 20.8066C14.5188 20.8224 14.5196 20.8379 14.5205 20.8533C14.5248 20.8838 14.5277 20.9175 14.5298 20.9539H14.5303C14.581 21.7189 14.6631 22.485 14.7764 23.2353L14.8269 23.5559L14.8284 23.5642L14.8296 23.5728C14.8353 23.6115 14.8386 23.6492 14.8408 23.6853C14.9814 24.5396 15.1615 25.3875 15.3809 26.2275C15.3962 26.2686 15.4094 26.3111 15.4209 26.3547H15.4214C16.2408 29.4264 17.5986 32.4202 19.3503 35.0269L19.5212 35.2778L19.5215 35.2786C19.6588 35.4783 19.7382 35.7073 19.7581 35.9412L19.7629 36.0417V36.0684C19.7625 36.1312 19.758 36.2094 19.7427 36.2971L19.7422 36.2993L19.7419 36.3018C19.7248 36.3973 19.6977 36.485 19.666 36.5642L19.6665 36.5644C19.6655 36.5669 19.6641 36.5693 19.6631 36.5718C19.6624 36.5736 19.6619 36.5756 19.6611 36.5774L19.6606 36.5771C19.5636 36.8158 19.3977 37.0328 19.1687 37.1912L19.1689 37.1914C19.0223 37.2929 18.8682 37.355 18.7227 37.3906C18.7192 37.3914 18.7154 37.3925 18.7112 37.3936C18.7134 37.393 18.7156 37.3926 18.7178 37.3921C18.7143 37.393 18.7106 37.3941 18.7065 37.395L18.7063 37.3948C18.702 37.3958 18.6975 37.3973 18.6926 37.3984L18.6816 37.4009L18.6709 37.4031C18.6551 37.4063 18.6423 37.4085 18.6372 37.4094C18.6358 37.4097 18.6345 37.41 18.6338 37.4102H18.6326C18.6326 37.4102 18.6343 37.41 18.636 37.4097L18.6357 37.4092C18.5615 37.4228 18.4782 37.4326 18.3875 37.4326C18.1828 37.4326 17.9965 37.3855 17.8374 37.3154C17.8349 37.3144 17.8325 37.3133 17.8301 37.3123C17.8256 37.3102 17.8209 37.3084 17.8164 37.3064V37.3059C17.6131 37.2139 17.4106 37.0641 17.2578 36.8435L17.2576 36.843C16.7071 36.0471 16.2115 35.2468 15.7383 34.4036C15.7142 34.3613 15.6944 34.3206 15.6775 34.2825C15.2206 33.4565 14.7989 32.6061 14.415 31.7378C14.3883 31.6929 14.3624 31.644 14.3391 31.5908L14.3381 31.5889C12.7865 28.0308 11.9158 24.2939 11.7463 20.4692H9.78662C9.61912 24.2941 8.7482 28.0312 7.19409 31.5894L7.19336 31.5908C7.1699 31.6443 7.14387 31.6935 7.11694 31.7385C6.7316 32.6099 6.30823 33.4636 5.84937 34.293C5.83529 34.3238 5.81827 34.3574 5.79834 34.3928L5.79883 34.3931C5.32786 35.2393 4.82845 36.041 4.27905 36.8406L4.2771 36.8435C3.84891 37.4619 2.975 37.6176 2.3606 37.1894C1.40747 36.625 1.83294 35.5403 2.02344 35.2632C3.84778 32.6096 5.26441 29.5276 6.11133 26.3547C6.12345 26.3088 6.13772 26.2635 6.15454 26.2192C6.37331 25.3808 6.55292 24.5348 6.69312 23.6824C6.69603 23.6417 6.70095 23.6006 6.70776 23.5593L6.75757 23.2358C6.87007 22.4793 6.95355 21.7139 7.00195 20.9563L7.00366 20.9297L7.00684 20.9031C7.00806 20.8927 7.00971 20.8828 7.01099 20.8738C7.01213 20.8551 7.01327 20.8362 7.0144 20.8169C7.0139 20.7824 7.0146 20.748 7.0166 20.7139L7.01685 20.7114C7.01881 20.6793 7.02195 20.6489 7.02563 20.6206C7.02833 20.5702 7.03101 20.5197 7.03345 20.4692H1.53247C0.764133 20.4692 0.157673 19.8429 0.157471 19.092C0.157471 19.0441 0.160045 18.9975 0.164551 18.9529C0.23315 18.2652 0.810442 17.7126 1.53247 17.7126H7.03345C7.03104 17.6628 7.0283 17.6129 7.02563 17.563C7.02186 17.5345 7.01887 17.5034 7.01685 17.4702L7.0166 17.4678C7.01482 17.4374 7.01388 17.4022 7.0144 17.3633C7.01328 17.3438 7.01206 17.3255 7.01099 17.3074C7.00974 17.2985 7.00803 17.2889 7.00684 17.2788L7.00366 17.2522L7.00195 17.2256C6.94664 16.3598 6.84564 15.4838 6.70776 14.6226C6.70084 14.5806 6.69577 14.5385 6.69287 14.4971C6.5527 13.6452 6.37299 12.7997 6.1543 11.9617C6.13756 11.9175 6.12336 11.8725 6.11133 11.8269C5.26485 8.65564 3.84932 5.57527 2.02637 2.9226C1.53247 2.125 1.78618 1.39263 2.3606 0.992184L2.40723 0.960934C2.99553 0.586306 3.79948 0.713808 4.23779 1.28442L4.27686 1.33789L4.27783 1.3396L4.27905 1.34106C4.82851 2.14074 5.3279 2.9427 5.79883 3.78881H5.79834C5.81796 3.82362 5.83492 3.85689 5.84912 3.88794C6.30788 4.71712 6.7308 5.57057 7.11597 6.4414C7.12959 6.46411 7.14303 6.48797 7.15601 6.51294L7.19336 6.5913L7.19409 6.59253C8.74818 10.1507 9.61913 13.8878 9.78662 17.7126H11.7463C11.9158 13.888 12.7865 10.1511 14.3381 6.59301L14.3391 6.5913C14.3618 6.53948 14.3871 6.49027 14.4146 6.44409C14.7987 5.57519 15.2205 4.72403 15.6777 3.89746C15.6944 3.86007 15.7136 3.82186 15.7354 3.7832L15.9143 3.46826C16.3345 2.73772 16.775 2.03649 17.2576 1.33862L17.2581 1.33789C17.4132 1.11401 17.6212 0.960073 17.8347 0.867184V0.866695C17.839 0.864784 17.8435 0.863196 17.8479 0.861324C17.8504 0.86028 17.8528 0.858936 17.8552 0.857906V0.858395C18.0143 0.791062 18.1944 0.749276 18.3875 0.749264L18.4517 0.750729ZM1.97778 2.84814C1.97738 2.84748 1.97681 2.84643 1.97681 2.84643L1.97632 2.84594L1.97778 2.84814Z" fill="black"/>
<path d="M18.7444 37.3853C18.7432 37.3856 18.7407 37.3864 18.7375 37.3872C18.7332 37.3884 18.7263 37.3899 18.7178 37.3921C18.7194 37.3917 18.721 37.391 18.7227 37.3906C18.7256 37.3899 18.7282 37.3895 18.7305 37.3889C18.7348 37.3878 18.7386 37.3869 18.741 37.3862C18.7431 37.3856 18.7448 37.3852 18.7454 37.385L18.7444 37.3853Z" fill="black"/>
</svg>
