<svg width="38" height="38" viewBox="0 0 38 38" fill="none" xmlns="http://www.w3.org/2000/svg">
<path d="M18.2498 17.6123C18.2812 17.6418 18.3079 17.6759 18.3274 17.7124L18.4326 17.4866C18.4169 17.4794 18.401 17.473 18.385 17.4673L18.2498 17.6123Z" fill="black"/>
<path d="M18.2236 17.5879L18.3386 17.4521C18.3068 17.4434 18.2747 17.4376 18.2427 17.4341L18.2112 17.5764C18.2119 17.5771 18.2126 17.5777 18.2133 17.5783C18.2167 17.5815 18.2202 17.5847 18.2236 17.5879Z" fill="black"/>
<path fill-rule="evenodd" clip-rule="evenodd" d="M18.3327 17.7151L18.3318 17.7147C18.3307 17.7141 18.3297 17.7135 18.3286 17.713C18.33 17.7137 18.3313 17.7144 18.3327 17.7151ZM18.2236 17.5879C18.2202 17.5847 18.2167 17.5815 18.2133 17.5783C18.2126 17.5777 18.2119 17.5771 18.2112 17.5764L18.2133 17.5783L18.2236 17.5879Z" fill="black"/>
<path fill-rule="evenodd" clip-rule="evenodd" d="M37.1924 17.8899C37.1924 18.6497 36.5772 19.2649 35.8174 19.2649C35.0581 19.2647 34.4424 18.6499 34.4424 17.8899V5.4668C29.9286 9.95483 25.4522 14.4761 20.9543 18.9851C23.5161 21.9724 25.5754 26.5142 26.3352 29.3196C27.095 32.125 27.135 33.9231 27.135 35.6975C27.135 36.4336 26.5576 37.034 25.8308 37.0708L25.76 37.0725C25.0002 37.0725 24.385 36.4573 24.385 35.6975C24.385 33.9779 24.1455 31.9924 23.7515 30.3193C22.9249 26.8755 21.2907 23.6535 19.0022 20.9346C18.9716 20.9604 18.9407 20.9847 18.9092 21.0071C13.6901 26.2279 8.46886 31.4435 3.24951 36.6694C2.99084 36.9281 2.64698 37.0725 2.27734 37.0725C1.92862 37.0724 1.58262 36.9425 1.31763 36.6814C1.31286 36.6768 1.3084 36.6721 1.30371 36.6675C1.30022 36.6639 1.29643 36.6606 1.29297 36.657C1.04087 36.4007 0.899912 36.0567 0.899902 35.6975V35.6851L0.900146 35.6726C0.908395 35.3427 1.03376 34.9949 1.30493 34.7261C6.56505 29.4576 11.8019 24.1652 17.0493 18.8833C14.9143 16.8961 12.4126 15.2093 9.68506 14.1528C7.59596 13.3436 4.99416 12.7825 1.46997 12.7825C0.710186 12.7825 0.0949707 12.1673 0.0949707 11.4075L0.0966797 11.3367C0.133501 10.6099 0.733842 10.0325 1.46997 10.0325H1.48901L1.50342 10.033C5.38916 10.1439 8.06769 10.6475 10.3723 11.5222C13.5147 12.7149 16.4749 14.5882 18.926 16.8755C18.9695 16.9157 19.0078 16.9595 19.0532 16.9973C23.5436 12.4959 28.015 7.98379 32.522 3.5H20.05C19.2971 3.5 18.675 2.88911 18.675 2.125C18.675 1.36089 19.2971 0.75 20.05 0.75H37.1924V17.8899ZM18.3274 17.7124C18.3079 17.6759 18.2812 17.6418 18.2498 17.6123L18.385 17.4673C18.401 17.473 18.4169 17.4794 18.4326 17.4866L18.3274 17.7124L18.3542 17.6978L18.3354 17.7166L18.3327 17.7151L18.3318 17.7147L18.3286 17.713L18.3274 17.7124ZM18.3386 17.4521L18.2236 17.5879L18.2133 17.5783L18.2112 17.5764L18.2427 17.4341C18.2747 17.4376 18.3068 17.4434 18.3386 17.4521Z" fill="black"/>
</svg>
