<svg width="36" height="36" viewBox="0 0 36 36" fill="none" xmlns="http://www.w3.org/2000/svg">
<path fill-rule="evenodd" clip-rule="evenodd" d="M22.9175 0.25C23.9917 0.25 25.1889 0.545608 26.1868 1.10522L26.1865 1.10547C26.5835 1.32755 26.9547 1.59335 27.2932 1.89258C28.1479 2.67143 28.7985 3.71093 29.1836 4.80127L29.1843 4.80396C29.4015 5.47895 29.51 6.17973 29.51 6.88501C29.5048 7.32757 29.4659 7.76713 29.3818 8.20215L29.3813 8.20435L29.3809 8.2063C28.8446 10.9198 28.5111 13.5811 28.3887 16.1182L28.3884 16.1179C28.2439 19.332 28.2394 22.9818 29.4094 26.0513L29.4104 26.0537C30.2789 28.3492 31.5415 30.1202 32.0398 30.7698C32.2241 31.0092 32.4189 31.2366 32.6226 31.4597V31.3047C32.6227 30.5453 33.2376 29.9299 33.9976 29.9299C34.6878 29.9301 35.2585 30.438 35.3572 31.1006L35.375 31.1553C35.375 32.9234 35.375 34.7282 35.375 35.9375C33.7499 35.9375 32.1251 35.9351 30.5 35.9351C29.7401 35.9351 29.1252 35.3198 29.125 34.5603C29.125 33.809 29.7266 33.1991 30.4746 33.1855C28.8906 31.4029 27.6816 29.2475 26.8403 27.0286C26.3909 25.8492 26.067 24.4111 25.8582 22.7739C25.5678 20.5261 25.5307 18.2471 25.6438 15.9849C25.7714 13.3128 26.1204 10.517 26.6841 7.6731C26.7342 7.41316 26.76 7.14828 26.76 6.88501C26.76 5.54968 26.36 4.77823 25.5571 4.03296L25.554 4.02979L25.5505 4.02661C24.8159 3.33202 23.8193 2.98943 22.8154 3.00391C20.6897 3.06185 18.9715 4.81235 18.9675 6.94946V30.9978C18.9674 31.7336 18.3902 32.334 17.6633 32.3708L17.5925 32.3726C16.8326 32.3726 16.2177 31.7572 16.2175 30.9978V6.94751C16.2175 6.70142 16.1994 6.51021 16.1597 6.27222C15.8378 4.40552 14.2506 3.04552 12.3604 3.00342C10.6906 2.98584 8.32251 4.16216 8.32251 6.07007C8.32251 14.3793 8.32007 22.6887 8.32007 30.9978C8.3199 31.7574 7.70483 32.3724 6.94531 32.3726C6.18542 32.3726 5.57023 31.7572 5.57007 30.9978C5.57007 23.0436 5.57251 15.0893 5.57251 7.13501C5.56963 7.10154 5.56738 7.06362 5.56738 7.02246C5.56738 6.47671 5.45014 5.96231 5.21875 5.49341C4.62733 4.29832 3.4275 3.57739 2.12744 3.57739C1.36799 3.57723 0.752441 2.96227 0.752441 2.20239L0.75415 2.13135C0.79113 1.40491 1.39125 0.827552 2.1272 0.827393C3.93011 0.827393 5.66215 1.61129 6.85059 3.01172C8.096 1.30228 10.1029 0.25 12.27 0.25C13.8549 0.250005 15.3937 0.817014 16.6013 1.84204C16.97 2.15448 17.2997 2.50441 17.5879 2.88281C17.767 2.64755 17.9631 2.42287 18.1755 2.21045L18.1763 2.20947C19.4409 0.947822 21.1248 0.25 22.9126 0.25H22.9175ZM22.9382 1.25098C22.9322 1.25064 22.9261 1.25004 22.9199 1.25H22.9175C22.9245 1.25 22.9314 1.25059 22.9382 1.25098Z" fill="black"/>
</svg>
