<svg width="39" height="39" viewBox="0 0 39 39" fill="none" xmlns="http://www.w3.org/2000/svg">
<path fill-rule="evenodd" clip-rule="evenodd" d="M18.9662 13.5349C19.5561 13.5165 20.1442 13.5401 20.7265 13.6047C22.7377 13.8246 24.6598 14.527 26.3469 15.6665C26.3826 15.6906 26.415 15.7149 26.4443 15.7388C27.1208 16.2043 27.739 16.7278 28.2961 17.2986L28.3278 17.3291L28.3293 17.3306C28.394 17.3967 28.4566 17.4627 28.5173 17.5281L28.6938 17.7217L28.6957 17.7241L28.6977 17.7263C28.7193 17.7506 28.7379 17.7739 28.7534 17.7939C29.1778 18.2791 29.5601 18.7932 29.9001 19.3301C29.9142 19.348 29.9283 19.3669 29.9423 19.3867L29.9814 19.4453L29.9831 19.448L29.9846 19.4507C31.2081 21.4247 31.8547 23.7023 31.8547 26.0325C31.8547 26.9615 31.7515 27.8673 31.5583 28.7393L31.5585 28.7395C31.5569 28.7467 31.5555 28.7535 31.5529 28.7654C31.5506 28.7759 31.5476 28.79 31.5441 28.8052L31.5439 28.8059C31.5283 28.8746 31.5116 28.9417 31.4975 28.9995L31.4977 28.9998C31.4927 29.0205 31.4795 29.0758 31.4692 29.1167L31.4689 29.1174C31.4568 29.1649 31.4434 29.214 31.434 29.2493C31.4182 29.309 31.4013 29.3726 31.383 29.4375L31.3828 29.4382C31.3789 29.4519 31.3752 29.4645 31.3725 29.4739C31.3695 29.4839 31.3674 29.4897 31.3657 29.4956L31.3659 29.4958C31.3433 29.5744 31.3194 29.6554 31.2939 29.7375L31.2936 29.7383C31.2908 29.7475 31.2882 29.7562 31.2863 29.762C31.2844 29.768 31.2831 29.7712 31.2822 29.7742L31.2824 29.7744C31.2179 29.9801 31.1476 30.1848 31.072 30.3884C30.9963 30.5921 30.1818 32.2876 30.1818 32.2876C29.0208 34.2986 27.3318 35.9411 25.2949 37.0383L25.2289 37.0713C25.2079 37.0811 25.1875 37.09 25.1677 37.0981C24.0921 37.6658 22.9243 38.0819 21.6933 38.3167C20.4623 38.5514 19.3522 38.54 19.3522 38.54C17.0302 38.54 14.7629 37.8989 12.7941 36.6833L12.7927 36.6824C12.7586 36.6613 12.7284 36.6403 12.7028 36.6213C11.6124 35.9371 10.6612 35.108 9.86053 34.1726C9.84333 34.1526 9.8125 34.1169 9.78583 34.0852L9.78485 34.0842C9.75939 34.0539 9.73245 34.021 9.71454 33.9993L9.58881 33.845L9.58807 33.844C9.57082 33.8224 9.55022 33.7961 9.53949 33.7825C9.46402 33.687 9.38686 33.5876 9.31049 33.4851L9.30511 33.4778C9.29314 33.4614 9.2794 33.4417 9.26459 33.4192C8.95979 33.0018 8.68165 32.5669 8.43182 32.1169C8.40931 32.0838 8.38537 32.0457 8.36224 32.0029C7.70232 30.7908 7.25445 29.4889 7.02386 28.1301C7.01567 28.0821 7.01012 28.0333 7.00702 27.9836C6.9316 27.5089 6.88354 27.0297 6.86298 26.5486C6.85966 26.5197 6.85684 26.4863 6.85541 26.4497C6.8495 26.3019 6.84955 26.1575 6.84955 26.0349L6.85077 25.8699C6.85296 25.7055 6.85822 25.5421 6.86664 25.3799C6.96376 23.4667 7.50311 21.5483 8.52386 19.7803L8.64301 19.5784C9.85152 17.5717 11.5803 15.9589 13.6608 14.8975L13.8701 14.793C13.9061 14.7753 13.9413 14.7604 13.975 14.7473C15.4778 14.0284 17.1453 13.6016 18.9025 13.5388C18.9195 13.5374 18.9389 13.5359 18.9599 13.5352L18.9631 13.5349H18.9662ZM24.2285 17.5891C22.6499 16.6777 20.861 16.2267 19.0549 16.2847L19.0546 16.2844C19.0332 16.2851 19.0127 16.2852 18.9933 16.2849C13.7824 16.4754 9.59956 20.776 9.59955 26.0325L9.60175 26.2529L9.60809 26.4417C9.69346 28.387 10.3586 30.2828 11.5295 31.8594C11.6938 32.0781 11.8689 32.2932 12.0505 32.4993L12.0825 32.5374C12.7537 33.2887 13.5533 33.9483 14.4738 34.4797C14.5264 34.5101 14.573 34.5369 14.6166 34.5615L14.7419 34.6299L14.7477 34.6328C14.7787 34.6492 14.8066 34.666 14.8315 34.6816C16.2184 35.4074 17.7669 35.79 19.3495 35.79C24.613 35.79 28.918 31.5962 29.0978 26.3755C29.2106 22.9406 27.505 19.5568 24.3784 17.6775L24.2285 17.5891Z" fill="black"/>
<path d="M5.55927 0.878174C5.94286 0.892037 6.31877 0.95277 6.68036 1.0542C6.68361 1.05493 6.687 1.05537 6.69037 1.05615L6.75824 1.07373L6.76288 1.0752L6.76727 1.07642C7.76674 1.37381 8.64675 1.99603 9.26312 2.83228L9.32196 2.91382L9.32294 2.91528L13.7524 9.22437L13.8168 9.3103C14.1511 9.72852 14.6597 9.97506 15.1945 9.9751H23.8271C24.3621 9.97509 24.8708 9.72853 25.205 9.3103L25.2695 9.22437L29.6987 2.91553L29.6996 2.91382C30.3183 2.03638 31.223 1.38335 32.2546 1.07642L32.2592 1.0752L32.2636 1.07373C32.2914 1.06575 32.319 1.05919 32.3459 1.05322C32.7606 0.937192 33.1941 0.875 33.6362 0.875H37.0695C37.8293 0.875008 38.4445 1.49022 38.4445 2.25C38.4445 3.00977 37.8293 3.62499 37.0695 3.625H33.6362C32.9703 3.625 32.3444 3.95012 31.9653 4.49121L31.9645 4.49219L31.4394 5.23975L31.4391 5.2395C31.4077 5.28447 31.3757 5.32419 31.3449 5.35889L28.9426 8.78052C28.9234 8.81406 28.9012 8.84973 28.8754 8.88647L28.8757 8.88672L27.5309 10.8035L27.5312 10.8037C26.8968 11.7093 25.9577 12.3374 24.9081 12.5935C24.5596 12.6794 24.1977 12.7251 23.8295 12.7251H23.5727L23.5678 12.7224H15.4433L15.4382 12.7251H15.1921C14.8235 12.7251 14.4607 12.6798 14.1108 12.5933C13.0621 12.3367 12.1243 11.7082 11.4907 10.8037L10.1811 8.93677C10.1698 8.92225 10.1567 8.90541 10.1437 8.88696L8.63373 6.7373C8.60457 6.69583 8.57819 6.65306 8.55438 6.60986L7.66888 5.34863C7.64167 5.31733 7.61262 5.28088 7.58368 5.2395L7.05878 4.49219L7.05804 4.49121C6.69074 3.96702 6.09187 3.64555 5.4494 3.62598L5.38715 3.625H2.68964C1.92986 3.625 1.31465 3.00978 1.31464 2.25C1.31464 1.49022 1.92985 0.875 2.68964 0.875H5.38715L5.55927 0.878174Z" fill="black"/>
</svg>
