<svg width="39" height="39" viewBox="0 0 39 39" fill="none" xmlns="http://www.w3.org/2000/svg">
<path fill-rule="evenodd" clip-rule="evenodd" d="M33.4639 0.75L33.5325 0.75C38.5325 0.750001 39.3644 5.875 38.2825 10C36.9738 14.9892 33.5513 18.3228 31.6862 20.2079L31.6609 20.2334C30.907 20.9954 30.1795 21.7813 29.5125 22.626C29.5125 25.5832 29.5125 28.5377 29.5125 31.4949C29.5125 32.2547 28.8972 32.8699 28.1375 32.8699C27.3777 32.8699 26.7625 32.2547 26.7625 31.4949C26.7625 29.9546 26.7625 28.4105 26.7625 26.8718C24.954 30.2876 23.9378 33.3786 23.104 37.5657C22.9746 38.2311 22.3926 38.6775 21.7549 38.6775C21.6613 38.6775 21.5709 38.667 21.4883 38.6506C20.745 38.5036 20.2593 37.7811 20.4065 37.0361L20.4067 37.0339C21.5125 31.4997 23.4387 26.2078 26.7649 21.696V7.44995C26.7649 5.05027 25.2428 3.57907 22.9524 3.5022L22.8201 3.5C20.8098 3.5 19.0586 5.08482 18.8892 7.11084L18.8877 7.12793L18.8857 7.14478C18.8813 7.18217 18.8749 7.2177 18.8682 7.25147C18.8717 7.31575 18.875 7.38835 18.875 7.44751V26.1729C18.875 26.2019 18.8741 26.2292 18.8726 26.2544V31.4954C18.8723 32.2547 18.2574 32.8699 17.4978 32.8701C16.7377 32.8701 16.1228 32.2545 16.1226 31.4954V24.7451C16.1226 24.7166 16.1235 24.6895 16.125 24.6641V7.44751C16.125 4.82787 14.5284 3.53131 12.175 3.5C10.0966 3.5 8.31418 5.04481 8.23169 7.29419L8.23096 7.29395C8.22997 7.3218 8.22787 7.3481 8.2251 7.3728C8.22636 7.41829 8.22754 7.46762 8.22754 7.51758C8.22753 7.55874 8.22533 7.59869 8.22192 7.63696C8.22501 7.67135 8.22754 7.7076 8.22754 7.74512V31.4954C8.2273 32.2546 7.61249 32.8699 6.85278 32.8701C6.09272 32.8701 5.47778 32.2545 5.47754 31.4954V7.74219C5.47755 7.70558 5.47965 7.66996 5.48267 7.63623C5.47923 7.59784 5.47755 7.55832 5.47754 7.51782C5.47754 5.2981 3.90539 4.07495 2.03247 4.07495C1.27269 4.07495 0.657471 3.45974 0.657471 2.69995L0.65918 2.62915C0.696015 1.90252 1.29625 1.32495 2.03247 1.32495C3.72935 1.32495 5.15747 1.625 6.75513 3.50977C7.97573 1.83031 10.1182 0.750001 12.175 0.750001C14.1555 0.750026 16.2007 1.6806 17.4976 3.3794C18.7322 1.76669 20.8005 0.750029 22.8174 0.750001C24.8055 0.750001 26.9577 1.81567 28.1626 3.41089C29.4162 1.75406 31.3897 0.749717 33.4639 0.75ZM33.4033 3.50098C36.2948 3.46011 36.519 7.13262 36.0325 9C35.0238 12.8508 32.234 15.743 29.5176 18.4876V7.51489C29.5511 5.27656 31.2356 3.54246 33.4033 3.50098Z" fill="black"/>
</svg>
